<?xml version="1.0" encoding="UTF-8" standalone="no"?>
<!-- Created with Inkscape (http://www.inkscape.org/) -->

<svg
   xml:space="preserve"
   id="svg5"
   version="1.1"
   viewBox="0 0 200.00006 199.99768"
   height="200"
   width="200"
   inkscape:version="1.2.2 (732a01da63, 2022-12-09)"
   sodipodi:docname="toLOGO.svg"
   xmlns:inkscape="http://www.inkscape.org/namespaces/inkscape"
   xmlns:sodipodi="http://sodipodi.sourceforge.net/DTD/sodipodi-0.dtd"
   xmlns:xlink="http://www.w3.org/1999/xlink"
   xmlns="http://www.w3.org/2000/svg"
   xmlns:svg="http://www.w3.org/2000/svg"><sodipodi:namedview
     id="namedview7"
     pagecolor="#505050"
     bordercolor="#eeeeee"
     borderopacity="1"
     inkscape:showpageshadow="0"
     inkscape:pageopacity="0"
     inkscape:pagecheckerboard="0"
     inkscape:deskcolor="#505050"
     inkscape:document-units="px"
     showgrid="false"
     inkscape:zoom="0.64"
     inkscape:cx="125.78125"
     inkscape:cy="4141.4063"
     inkscape:window-width="1494"
     inkscape:window-height="981"
     inkscape:window-x="2457"
     inkscape:window-y="0"
     inkscape:window-maximized="0"
     inkscape:current-layer="layer1"><inkscape:grid
       type="xygrid"
       id="grid18718" /></sodipodi:namedview><defs
     id="defs2"><linearGradient
       inkscape:collect="always"
       id="linearGradient16265"><stop
         style="stop-color:#fff;stop-opacity:1;"
         offset="0"
         id="stop16261" /><stop
         style="stop-color:#fff;stop-opacity:1;"
         offset="1"
         id="stop16263" /></linearGradient><linearGradient
       inkscape:collect="always"
       xlink:href="#linearGradient16265"
       id="linearGradient4978"
       gradientUnits="userSpaceOnUse"
       gradientTransform="matrix(1.1802536,0,0,1.1802536,90.38853,909.79411)"
       x1="608.24792"
       y1="170.89062"
       x2="777.703"
       y2="340.34375" /></defs><g
     inkscape:label="Warstwa 1"
     inkscape:groupmode="layer"
     id="layer1"
     transform="translate(-808.27533,-1111.4883)"><path
       id="path4976"
       style="opacity:1;fill:url(#linearGradient4978);fill-opacity:1;stroke:none;stroke-width:99.9999;stroke-linecap:round;stroke-linejoin:round;stroke-dasharray:none;stroke-opacity:1"
       d="m 908.27647,1111.4883 a 99.999343,99.999343 0 0 0 -100.00112,99.9989 99.999343,99.999343 0 0 0 100.00112,99.9988 99.999343,99.999343 0 0 0 99.99893,-99.9988 99.999343,99.999343 0 0 0 -99.99893,-99.9989 z m 21.77473,39.4486 c 2.38872,0 4.20985,0 5.60621,0.03 0.69824,0.013 1.28943,0.029 1.79339,0.055 0.50409,0.026 0.91989,0.06 1.26559,0.1038 0.34582,0.044 0.62258,0.097 0.84601,0.1614 0.22342,0.065 0.39314,0.1411 0.53017,0.2328 0.13702,0.092 0.24077,0.1977 0.3274,0.3205 0.0862,0.1226 0.15615,0.2614 0.22814,0.4196 0.0472,0.1026 0.0885,0.3799 0.12216,0.8459 0.0342,0.466 0.0614,1.1223 0.0826,1.9824 0.0425,1.7205 0.0614,4.2619 0.0602,7.7478 0,4.5507 -0.0118,7.0564 -0.0673,8.4831 -0.0283,0.7133 -0.0708,1.1563 -0.12675,1.4499 -0.0283,0.1468 -0.0602,0.2564 -0.0968,0.3435 -0.0366,0.087 -0.0779,0.1522 -0.12439,0.2098 -0.0992,0.1217 -0.19109,0.2302 -0.29046,0.3249 -0.0992,0.095 -0.20537,0.1755 -0.32965,0.2467 -0.1244,0.071 -0.26674,0.1335 -0.44035,0.1845 -0.1735,0.051 -0.37768,0.093 -0.62471,0.1267 -0.49405,0.069 -1.15984,0.1063 -2.09306,0.1268 -0.93335,0.021 -2.13579,0.022 -3.7021,0.022 -1.78467,0 -3.24547,0.015 -4.46054,0.053 -1.21519,0.038 -2.18276,0.098 -2.98297,0.1914 -0.40011,0.047 -0.75808,0.1038 -1.08335,0.1683 -0.3254,0.064 -0.61987,0.1373 -0.88992,0.2213 -0.26992,0.084 -0.51529,0.1777 -0.7491,0.2835 -0.23393,0.1062 -0.45605,0.2227 -0.6731,0.3527 -0.24608,0.1473 -0.45393,0.2852 -0.63852,0.4265 -0.18459,0.1412 -0.34652,0.2861 -0.49334,0.4472 -0.14695,0.1611 -0.27972,0.3393 -0.41262,0.5463 -0.1329,0.2071 -0.26544,0.4425 -0.40801,0.7215 l -0.71465,1.4015 -0.0755,7.6395 -0.0732,7.6393 9.73249,0.067 9.73249,0.067 0.68927,0.7723 0.69151,0.7722 v 10.6523 c 0,2.8886 0,5.0602 -0.0236,6.7035 -0.0118,0.8216 -0.0248,1.5128 -0.0484,2.0931 -0.0236,0.5802 -0.0531,1.0506 -0.0944,1.4362 -0.0413,0.3854 -0.0909,0.6845 -0.15438,0.922 -0.0637,0.2374 -0.13986,0.4126 -0.23062,0.5486 -0.0909,0.136 -0.19734,0.2346 -0.32032,0.3158 -0.1231,0.081 -0.2639,0.1459 -0.42418,0.2191 -0.11213,0.051 -0.37013,0.096 -0.80222,0.1313 -0.43209,0.037 -1.03744,0.065 -1.84179,0.087 -1.60892,0.045 -4.01345,0.065 -7.42509,0.065 h -9.45123 v 25.1979 c 0,10.6218 -0.0142,16.9536 -0.0626,20.7144 -0.0248,1.8804 -0.0566,3.118 -0.1015,3.928 -0.0224,0.4051 -0.0496,0.704 -0.0779,0.9221 -0.0283,0.218 -0.059,0.3555 -0.0944,0.4403 -0.0814,0.1946 -0.15166,0.3654 -0.2351,0.5141 -0.0838,0.1486 -0.18058,0.2761 -0.31584,0.3849 -0.13514,0.1086 -0.30734,0.1992 -0.54398,0.2743 -0.23664,0.075 -0.53666,0.1346 -0.92437,0.1821 -0.38771,0.047 -0.86371,0.083 -1.4523,0.1086 -0.58848,0.026 -1.28872,0.043 -2.12765,0.053 -1.67796,0.021 -3.90782,0.018 -6.8856,0.014 -2.94662,0 -5.68044,-0.03 -7.71319,-0.07 -1.01632,-0.02 -1.85807,-0.043 -2.46189,-0.067 -0.60252,-0.025 -0.96745,-0.053 -1.03733,-0.08 v 0 c -0.13726,-0.055 -0.31855,-0.1793 -0.50019,-0.3319 -0.18223,-0.1531 -0.36352,-0.335 -0.50255,-0.5118 l -0.50715,-0.6431 v -25.5161 -25.5137 h -8.17645 c -2.12528,0 -3.73774,0 -4.97465,-0.021 -1.2369,-0.019 -2.09743,-0.055 -2.71777,-0.1223 -0.31017,-0.033 -0.56062,-0.073 -0.76763,-0.1244 -0.20702,-0.051 -0.37167,-0.1098 -0.5094,-0.1821 -0.13786,-0.072 -0.24786,-0.157 -0.35042,-0.2537 -0.10268,-0.097 -0.19616,-0.2046 -0.29742,-0.3296 -0.0472,-0.058 -0.0873,-0.1242 -0.1244,-0.2143 -0.0366,-0.09 -0.0685,-0.2061 -0.0968,-0.3619 -0.0555,-0.3118 -0.0968,-0.7874 -0.12452,-1.5607 -0.0566,-1.5466 -0.0673,-4.2814 -0.0696,-9.2645 0,-2.6847 -7.1e-4,-4.7087 0.0118,-6.2425 0.0118,-1.5337 0.0248,-2.5764 0.0555,-3.301 0.0307,-0.7244 0.0767,-1.1307 0.14529,-1.3876 0.0342,-0.1286 0.0755,-0.2194 0.12216,-0.2951 0.0472,-0.075 0.10032,-0.135 0.16134,-0.2006 0.13632,-0.1464 0.32527,-0.3058 0.52096,-0.4426 0.19569,-0.1367 0.39727,-0.2501 0.55791,-0.3111 0.0802,-0.031 0.38204,-0.061 0.85745,-0.087 0.47552,-0.027 1.12632,-0.05 1.9041,-0.07 1.55558,-0.04 3.62315,-0.067 5.83211,-0.067 h 8.00826 l 0.10386,-9.4028 c 0.0236,-2.0801 0.0437,-3.7237 0.0696,-5.0507 0.026,-1.3271 0.0578,-2.3364 0.0991,-3.1489 0.0413,-0.8125 0.0909,-1.4275 0.15898,-1.9641 0.0685,-0.5364 0.15367,-0.9947 0.26049,-1.4937 0.17314,-0.8084 0.3693,-1.5969 0.58788,-2.3651 0.21847,-0.7682 0.45829,-1.5156 0.72149,-2.243 0.2632,-0.7272 0.54799,-1.4348 0.85521,-2.1208 0.30722,-0.6858 0.63604,-1.3501 0.98669,-1.9939 0.35054,-0.6438 0.72244,-1.266 1.1157,-1.8671 0.39314,-0.6013 0.80953,-1.1804 1.24481,-1.7382 0.43516,-0.5578 0.89038,-1.0952 1.36697,-1.609 0.47647,-0.5139 0.97206,-1.0061 1.48913,-1.4754 0.51706,-0.4692 1.05432,-0.9151 1.61128,-1.3392 0.55696,-0.4242 1.13493,-0.825 1.73119,-1.2034 0.59627,-0.3783 1.21165,-0.7354 1.84651,-1.0673 0.63474,-0.3319 1.28896,-0.6394 1.9617,-0.9244 0.67263,-0.2848 1.36485,-0.5465 2.07465,-0.7836 0.7098,-0.2373 1.4366,-0.4497 2.183,-0.6387 0.74627,-0.1888 1.51155,-0.3532 2.29358,-0.4932 0.78216,-0.1401 1.58249,-0.2553 2.39981,-0.3458 0.63168,-0.07 2.19374,-0.1337 4.2023,-0.1798 2.00855,-0.046 4.46289,-0.075 6.87863,-0.075 z"
       inkscape:export-filename="..\szkoła strona new\facebookIcon.svg"
       inkscape:export-xdpi="96"
       inkscape:export-ydpi="96" /></g></svg>
