<?xml version="1.0" encoding="UTF-8" standalone="no"?>
<!-- Created with Inkscape (http://www.inkscape.org/) -->

<svg
   width="160.88783mm"
   height="102.96724mm"
   viewBox="0 0 160.88783 102.96724"
   version="1.1"
   id="svg5"
   xml:space="preserve"
   xmlns:inkscape="http://www.inkscape.org/namespaces/inkscape"
   xmlns:sodipodi="http://sodipodi.sourceforge.net/DTD/sodipodi-0.dtd"
   xmlns="http://www.w3.org/2000/svg"
   xmlns:svg="http://www.w3.org/2000/svg"><sodipodi:namedview
     id="namedview7"
     pagecolor="#505050"
     bordercolor="#eeeeee"
     borderopacity="1"
     inkscape:showpageshadow="0"
     inkscape:pageopacity="0"
     inkscape:pagecheckerboard="0"
     inkscape:deskcolor="#505050"
     inkscape:document-units="mm"
     showgrid="false"
     inkscape:zoom="1.4324916"
     inkscape:cx="540.66635"
     inkscape:cy="428.27477"
     inkscape:window-width="2400"
     inkscape:window-height="1261"
     inkscape:window-x="2391"
     inkscape:window-y="-9"
     inkscape:window-maximized="1"
     inkscape:current-layer="layer1" /><defs
     id="defs2" /><g
     inkscape:label="Warstwa 1"
     inkscape:groupmode="layer"
     id="layer1"
     transform="translate(-21.511309,-78.176832)"><g
       id="g461"
       transform="matrix(0.26458333,0,0,0.26458333,3.2656418,60.306203)"
       inkscape:export-filename="g461.svg"
       inkscape:export-xdpi="96"
       inkscape:export-ydpi="96"><g
         id="freepik--background-simple--inject-8" /><g
         id="freepik--Floor--inject-8"><polygon
           points="677.04,382.18 601.03,382.43 525.02,382.51 373,382.68 220.98,382.51 144.97,382.42 68.96,382.18 144.97,381.94 220.98,381.85 373,381.68 525.02,381.85 601.03,381.94 "
           style="fill:#263238"
           id="polygon12" /></g><g
         id="freepik--Shadow--inject-8"><ellipse
           cx="375"
           cy="425.29001"
           rx="286.73999"
           ry="31.42"
           style="fill:#303030;fill-opacity:1"
           id="ellipse15" /></g><g
         id="freepik--Character--inject-8"><path
           d="m 308.25,420.09 c -2.33,0.79 -69.14,1 -71.7,-0.58 -1,-0.6 -1.57,-10.33 -2,-22.11 -0.09,-2.54 -0.16,-5.17 -0.22,-7.83 l -5.33,-35.64 44.67,-0.29 4.21,35.65 -0.17,7.84 c 0,0 25.62,11.35 28.24,13.41 2.62,2.06 4.63,8.76 2.3,9.55 z"
           style="fill:#eb9481"
           id="path18" /><path
           d="m 308.25,420.09 c -2.33,0.79 -69.14,1 -71.7,-0.58 -1.18,-0.74 -1.82,-14.95 -2.18,-29.94 l 43.46,-0.28 -0.17,7.84 c 0,0 25.62,11.35 28.24,13.41 2.62,2.06 4.68,8.76 2.35,9.55 z"
           style="fill:#ffffff"
           id="path20" /><path
           d="m 308.25,420.09 c -2.33,0.79 -69.14,1 -71.7,-0.58 -1,-0.6 -1.57,-10.33 -2,-22.11 l 43.07,-0.27 c 0,0 25.62,11.35 28.24,13.41 2.62,2.06 4.72,8.76 2.39,9.55 z"
           style="fill:#a6a6a6"
           id="path22" /><path
           d="m 307.28,417.42 c -11.2,-0.24 -56.4,-0.13 -67.49,0.49 -0.09,0 -0.09,0.06 0,0.07 11.1,0.47 56.3,0 67.49,-0.38 0.24,-0.01 0.24,-0.18 0,-0.18 z"
           style="fill:#263238"
           id="path24" /><path
           d="m 301.59,408.15 a 9,9 0 0 0 -6.69,2.76 8.66,8.66 0 0 0 -2.48,6 c 0,0.07 0.12,0.07 0.13,0 a 10.4,10.4 0 0 1 9,-8.6 0.08246211,0.08246211 0 0 0 0.04,-0.16 z"
           style="fill:#263238"
           id="path26" /><path
           d="m 282,398.23 c -4.48,-0.05 -9.67,1.55 -12.45,5.23 -0.1,0.14 0.1,0.29 0.23,0.22 a 62.24,62.24 0 0 1 12.3,-4.9 0.28,0.28 0 0 0 -0.08,-0.55 z"
           style="fill:#263238"
           id="path28" /><path
           d="m 285.48,399.56 c -4.49,0 -9.68,1.56 -12.45,5.23 -0.11,0.15 0.09,0.3 0.23,0.23 a 61.59,61.59 0 0 1 12.29,-4.91 0.28,0.28 0 0 0 -0.07,-0.55 z"
           style="fill:#263238"
           id="path30" /><path
           d="m 288.94,400.9 c -4.48,0 -9.67,1.55 -12.45,5.23 -0.1,0.14 0.1,0.29 0.23,0.22 a 62.24,62.24 0 0 1 12.3,-4.9 0.28,0.28 0 0 0 -0.08,-0.55 z"
           style="fill:#263238"
           id="path32" /><path
           d="m 292.41,402.24 c -4.49,-0.05 -9.68,1.55 -12.45,5.23 -0.11,0.14 0.1,0.29 0.23,0.22 a 62,62 0 0 1 12.3,-4.9 0.28,0.28 0 0 0 -0.08,-0.55 z"
           style="fill:#263238"
           id="path34" /><path
           d="m 242.61,407.26 c -5,0 -5,7.85 0,7.82 5,-0.03 5.04,-7.85 0,-7.82 z"
           style="fill:#263238"
           id="path36" /><path
           d="m 286.81,386.25 c -2.27,-1.88 -5.13,0 -6.52,1.93 a 23.58,23.58 0 0 0 -4,11.48 c 0,0.09 0.07,0.13 0.14,0.13 a 0.54,0.54 0 0 0 0.81,0.35 c 3.18,-2.21 6.86,-4.19 9.27,-7.32 1.37,-1.82 2.49,-4.82 0.3,-6.57 z m -5.46,9.54 c -1.54,1.13 -3.13,2.18 -4.63,3.37 0.8,-2.24 1.49,-4.5 2.51,-6.66 a 25.05,25.05 0 0 1 1.62,-3 c 1,-1.49 5.36,-5.25 5.82,-0.38 0.26,2.67 -3.49,5.33 -5.32,6.67 z"
           style="fill:#263238"
           id="path38" /><path
           d="m 265.13,401.36 c 3.9,0.58 7.93,-0.54 11.76,-1.15 a 0.55,0.55 0 0 0 0.33,-0.82 0.12,0.12 0 0 0 0,-0.19 23.5,23.5 0 0 0 -10.86,-5.47 c -2.36,-0.45 -5.7,0.2 -6,3.13 -0.36,2.76 2.49,4.14 4.77,4.5 z m -2.72,-2.54 c -3,-3.84 2.73,-4.17 4.45,-3.77 a 25.58,25.58 0 0 1 3.28,1.06 69.56,69.56 0 0 1 6.41,3.05 c -1.9,0.19 -3.77,0.53 -5.66,0.79 -2.26,0.3 -6.8,0.98 -8.48,-1.13 z"
           style="fill:#263238"
           id="path40" /><path
           d="m 163.32,189.2 c 0,0 51.87,88.24 53.26,94.44 2.13,9.52 13.42,103.53 13.42,103.53 l 54,-1 c 0,0 -9.3,-82.89 -18.11,-110.2 -6.34,-19.67 -52.12,-84.91 -52.12,-84.91 z"
           style="fill:#37474f"
           id="path42" /><path
           d="m 279.09,377.93 c -7.75,-0.06 -35.22,-0.37 -45.54,0.59 -0.08,0 -0.07,0.14 0,0.15 3.55,0.51 37.78,-0.28 45.53,-0.53 a 0.11,0.11 0 1 0 0.01,-0.21 z"
           style="fill:#263238"
           id="path44" /><path
           d="m 172.17,197.3 c 3.4,5.33 7,10.55 10.46,15.84 3.46,5.29 6.94,10.58 10.37,15.86 q 10.26,16 20,32.21 a 98.63,98.63 0 0 1 8.1,15.79 96.75,96.75 0 0 1 4.55,16.94 c 1.06,5.79 1.76,11.64 2.41,17.49 q 1,9.33 2.09,18.67 2.13,19.11 4.27,38.22 c 0.17,1.56 0.34,3.12 0.5,4.69 0,0.23 -0.39,0.27 -0.42,0 -1.59,-12.65 -2.91,-25.35 -4.35,-38 q -1.08,-9.47 -2.15,-18.93 c -0.67,-5.87 -1.31,-11.75 -2.22,-17.58 a 115,115 0 0 0 -3.8,-17 81.65,81.65 0 0 0 -7.46,-16.5 c -6.25,-10.79 -12.87,-21.39 -19.49,-32 -6.62,-10.61 -13.42,-21.31 -20.4,-31.79 -0.86,-1.29 -1.73,-2.58 -2.63,-3.85 -0.07,-0.07 0.11,-0.16 0.17,-0.06 z"
           style="fill:#263238"
           id="path46" /><path
           d="m 180.32,425.29 c -2.46,-0.15 -66,-25.89 -67.76,-28.33 a 0.84,0.84 0 0 1 -0.1,-0.47 c 0,-2.19 4.41,-9.83 8.09,-19.87 0.23,-0.64 1.87,-3.62 4.14,-7.63 C 131,358 142,339.07 142,339.07 l 41.53,16.5 -19.88,29.75 -3.09,7.2 c 0,0 19.49,20.15 21.13,23 1.64,2.85 1.08,9.91 -1.37,9.77 z"
           style="fill:#eb9481"
           id="path48" /><path
           d="m 180.32,425.29 c -2.46,-0.15 -66,-25.89 -67.76,-28.33 a 0.84,0.84 0 0 1 -0.1,-0.47 c 0,-2.19 4.41,-9.83 8.09,-19.87 0.23,-0.64 1.87,-3.62 4.14,-7.63 l 39,16.33 -3.09,7.2 c 0,0 19.49,20.15 21.13,23 1.64,2.85 1.04,9.91 -1.41,9.77 z"
           style="fill:#ffffff"
           id="path50" /><path
           d="m 180.32,425.29 c -2.46,-0.15 -66,-25.89 -67.76,-28.33 -0.68,-0.93 2.16,-9.6 8,-20.34 l 40,15.91 c 0,0 19.49,20.13 21.14,23 1.65,2.87 1.07,9.9 -1.38,9.76 z"
           style="fill:#a6a6a6"
           id="path52" /><path
           d="m 180.42,422.45 c -10.29,-4.42 -52.23,-21.28 -62.74,-24.86 -0.09,0 -0.11,0 0,0.06 10.11,4.6 52.18,21.12 62.7,25 0.2,0.05 0.26,-0.11 0.04,-0.2 z"
           style="fill:#263238"
           id="path54" /><path
           d="m 178.62,411.72 a 9,9 0 0 0 -7.24,0 8.7,8.7 0 0 0 -4.54,4.62 c 0,0.06 0.09,0.11 0.12,0.05 a 10.41,10.41 0 0 1 11.61,-4.59 0.07,0.07 0 0 0 0.05,-0.08 z"
           style="fill:#263238"
           id="path56" /><path
           d="m 164.19,395.18 c -4.13,-1.73 -9.55,-2.19 -13.5,0.18 -0.15,0.09 0,0.3 0.13,0.29 a 62.34,62.34 0 0 1 13.24,0.07 0.28,0.28 0 0 0 0.13,-0.54 z"
           style="fill:#263238"
           id="path58" /><path
           d="m 166.9,397.72 c -4.13,-1.73 -9.55,-2.19 -13.5,0.18 -0.15,0.09 0,0.3 0.13,0.29 a 61.69,61.69 0 0 1 13.24,0.07 0.28,0.28 0 0 0 0.13,-0.54 z"
           style="fill:#263238"
           id="path60" /><path
           d="m 169.62,400.26 c -4.14,-1.73 -9.56,-2.19 -13.5,0.18 -0.16,0.09 0,0.3 0.12,0.29 a 61.69,61.69 0 0 1 13.24,0.07 0.28,0.28 0 0 0 0.14,-0.54 z"
           style="fill:#263238"
           id="path62" /><path
           d="m 172.33,402.8 c -4.14,-1.73 -9.55,-2.19 -13.5,0.17 -0.16,0.1 0,0.31 0.12,0.3 a 61.69,61.69 0 0 1 13.24,0.07 0.28,0.28 0 0 0 0.14,-0.54 z"
           style="fill:#263238"
           id="path64" /><path
           d="m 124.28,388.77 c -4.67,-1.86 -7.57,5.41 -2.88,7.27 4.69,1.86 7.6,-5.41 2.88,-7.27 z"
           style="fill:#263238"
           id="path66" /><path
           d="m 173.14,385.88 c -1.41,-2.59 -4.74,-1.95 -6.77,-0.66 a 23.52,23.52 0 0 0 -8,9.13 0.12,0.12 0 0 0 0.08,0.17 c 0,0.33 0.22,0.72 0.61,0.64 3.79,-0.87 7.94,-1.32 11.34,-3.32 1.95,-1.16 4.07,-3.51 2.74,-5.96 z m -8.65,6.79 c -1.85,0.47 -3.71,0.85 -5.54,1.39 a 69.94,69.94 0 0 1 4.81,-5.23 25.34,25.34 0 0 1 2.65,-2.2 c 1.45,-1 6.93,-2.85 5.53,1.84 -0.77,2.59 -5.24,3.64 -7.45,4.2 z"
           style="fill:#263238"
           id="path68" /><path
           d="m 147.37,391.75 c 3.4,2 7.55,2.47 11.33,3.35 0.39,0.09 0.65,-0.3 0.62,-0.64 a 0.11,0.11 0 0 0 0.08,-0.17 23.52,23.52 0 0 0 -8,-9.15 c -2,-1.3 -5.35,-1.95 -6.77,0.63 -1.42,2.58 0.75,4.81 2.74,5.98 z m -1.56,-3.38 c -1.39,-4.69 4.08,-2.83 5.53,-1.82 a 24.33,24.33 0 0 1 2.64,2.21 70,70 0 0 1 4.8,5.24 c -1.83,-0.54 -3.69,-0.93 -5.54,-1.4 -2.24,-0.6 -6.67,-1.6 -7.43,-4.23 z"
           style="fill:#263238"
           id="path70" /><path
           d="m 166.88,383.66 -46.49,-18.77 c 0,0 57.64,-84.75 58.06,-91.06 0.38,-5.58 -24.94,-54.2 -25.93,-68.37 -1.08,-15.3 6.28,-27.13 14.38,-34.48 l 47.95,20.39 c 0,0 -5.06,8.09 -13,12.6 0,0 24.59,56.2 23.19,73.48 -1.4,17.28 -58.16,106.21 -58.16,106.21 z"
           style="fill:#37474f"
           id="path72" /><path
           d="m 168.94,374.82 c -6.72,-2.89 -4.75,-2.16 -11.51,-5 -3.3,-1.38 -25,-10.41 -28.34,-11.16 -0.07,0 -0.12,0.1 -0.05,0.14 2.89,1.77 24.77,10.42 28.1,11.74 6.81,2.68 4.88,1.84 11.72,4.44 a 0.1,0.1 0 1 0 0.08,-0.16 z"
           style="fill:#263238"
           id="path74" /><path
           d="m 209.71,202.94 a 90.5,90.5 0 0 0 -14.6,4.74 0.15337862,0.15337862 0 1 0 0.1,0.29 c 4.9,-1.43 9.88,-2.77 14.7,-4.46 0.37,-0.13 0.18,-0.65 -0.2,-0.57 z"
           style="fill:#263238"
           id="path76" /><path
           d="m 204,201 a 21.65,21.65 0 0 0 -1.23,2.57 5.91,5.91 0 0 0 -0.63,2.15 c 0,0.15 0.2,0.18 0.29,0.09 a 7.51,7.51 0 0 0 1.2,-2 c 0.41,-0.79 0.83,-1.57 1.22,-2.38 0.27,-0.59 -0.54,-0.97 -0.85,-0.43 z"
           style="fill:#263238"
           id="path78" /><path
           d="m 204.6,196.46 c 0.3,-0.74 0.59,-1.47 0.9,-2.21 0.31,-0.74 0.7,-1.5 1,-2.28 0,-0.12 0.24,0 0.19,0.09 -0.3,0.74 -0.49,1.52 -0.72,2.28 -0.23,0.76 -0.49,1.52 -0.74,2.28 -0.47,1.41 -1,2.81 -1.65,4.18 a 5.3,5.3 0 0 0 2.3,-0.4 4.13,4.13 0 0 0 1.63,-2 c 0.42,-0.82 0.81,-1.66 1.24,-2.48 a 16.57,16.57 0 0 0 1.33,-2.79 c 0,-0.12 0.24,0 0.19,0.09 a 32.45,32.45 0 0 1 -2.55,5.91 c -0.45,0.73 -0.8,1.5 -1.62,1.78 a 6.78,6.78 0 0 1 -2.73,0.19 c -0.12,0 -0.26,0 -0.22,-0.18 a 47.4,47.4 0 0 1 1.45,-4.46 z"
           style="fill:#263238"
           id="path80" /><path
           d="m 202.56,205.8 c 1.71,3.61 3.21,7.21 4.8,10.81 1.59,3.6 3,7.08 4.43,10.66 2.86,7.22 5.42,14.58 7.67,22 1.11,3.68 2.14,7.39 3.06,11.13 a 80,80 0 0 1 2.22,11.36 30,30 0 0 1 -1,11.4 66.68,66.68 0 0 1 -4.23,10.63 c -1.05,2.16 -1.4,1.87 -0.9,0.78 1.43,-3.1 5.18,-12.49 4.91,-20.38 A 58.82,58.82 0 0 0 221.78,263 q -1.31,-5.67 -2.95,-11.25 c -2.13,-7.34 -4.66,-14.53 -7.26,-21.71 -1.46,-4 -3,-8 -4.5,-12 -1.5,-4 -3,-7.68 -4.68,-12.1 -0.05,-0.18 0.12,-0.25 0.17,-0.14 z"
           style="fill:#263238"
           id="path82" /><path
           d="m 167.27,193.87 c 0.83,-0.31 2,0.2 2.84,0.34 a 24.28,24.28 0 0 0 3.29,0.33 23.78,23.78 0 0 0 3.27,-0.11 7,7 0 0 0 3.13,-0.83 15.93,15.93 0 0 0 4,-4.23 24.61,24.61 0 0 0 3.11,-5.46 c 0,-0.12 0.21,0 0.17,0.08 -0.35,1.11 -0.61,2.23 -1,3.32 a 20.15,20.15 0 0 1 -1.54,2.95 12.61,12.61 0 0 1 -4.14,4.7 c -1.93,1.1 -4.41,1 -6.56,0.91 a 25.63,25.63 0 0 1 -3.71,-0.49 c -0.88,-0.19 -2.36,-0.33 -2.92,-1.1 a 0.27,0.27 0 0 1 0.06,-0.41 z"
           style="fill:#263238"
           id="path84" /><path
           d="m 133.66,356 q 11.46,-17.36 22.5,-35 11.04,-17.64 21.78,-35.55 c 1.71,-2.85 3.68,-5.69 4.78,-8.85 1.2,-3.43 0.52,-6.76 -0.56,-10.12 a 171.63,171.63 0 0 0 -7.14,-18 c -2.68,-5.91 -5.57,-11.72 -8.41,-17.55 -2.84,-5.83 -5.81,-11.59 -8,-17.67 -2,-5.81 -2.81,-11.83 -1.25,-17.85 1.56,-6.02 4.92,-11.34 8.43,-16.35 0.92,-1.32 1.87,-2.63 2.8,-4 0.07,-0.1 0.22,0 0.15,0.12 -3.87,5.22 -7.64,10.75 -9.91,16.88 a 29.15,29.15 0 0 0 -1.92,9.45 30.59,30.59 0 0 0 1.51,9.67 c 1.88,6.08 4.85,11.83 7.62,17.55 2.77,5.72 5.73,11.64 8.46,17.53 a 187.64,187.64 0 0 1 7.5,18.19 c 0.93,2.75 2,5.63 1.92,8.58 -0.07,3.23 -1.61,6.14 -3.21,8.86 -7,11.85 -14.17,23.56 -21.47,35.2 -7.3,11.64 -14.81,23.28 -22.41,34.8 l -2.88,4.35 c -0.15,0.18 -0.41,-0.03 -0.29,-0.24 z"
           style="fill:#263238"
           id="path86" /><path
           d="m 217.51,137.47 c 4.33,9.5 26.2,22.59 36.44,24 7.36,1 29.74,1.36 37.41,0.19 9,-1.38 2.12,-25.63 -3.19,-25 -14.6,1.7 -27,3.6 -30.9,3.6 -4.76,0 -30.51,-8.26 -33.61,-9.43 -7.6,-2.83 -8.6,1.25 -6.15,6.64 z"
           style="fill:#eb9481"
           id="path88" /><path
           d="m 217.65,140 c 5.48,8.11 23.69,21.37 23.69,21.37 l 2.53,-5.6 8.37,-18.52 c 0,0 -16.73,-5.25 -27.74,-7.65 a 24.12,24.12 0 0 0 -3.94,-0.56 c -7.03,-0.38 -7.64,3.96 -2.91,10.96 z"
           style="fill:#90caf9"
           id="path90" /><path
           d="m 217.65,140 c 5.48,8.11 23.69,21.37 23.69,21.37 l 2.53,-5.6 c -6.79,-7.89 -17.28,-19.84 -23.31,-26.71 -7.03,-0.4 -7.64,3.94 -2.91,10.94 z"
           style="fill:#263238"
           id="path92" /><path
           d="m 238.06,157.61 c 1.39,-3.41 7.57,-17.14 9.11,-20 0.1,-0.2 0.26,-0.18 0.17,0 a 201.71,201.71 0 0 1 -9.14,20 c -0.04,0.12 -0.2,0.08 -0.14,0 z"
           style="fill:#263238"
           id="path94" /><path
           d="m 285.49,136.91 c 8.88,-1.16 19.87,-3.15 29.18,0.8 a 5,5 0 0 1 2.49,2.13 c 4.2,1.7 4.66,4.19 4.66,4.19 3.43,2.78 3.55,5.4 3.55,5.4 0,0 4.92,2 4.17,5.22 -0.82,3.56 -7.56,0 -12.46,0.29 -11.25,0.7 -27,4.83 -30.25,5.35 z"
           style="fill:#eb9481"
           id="path96" /><path
           d="m 304.78,147.39 a 72.4,72.4 0 0 1 9.88,0 71.88,71.88 0 0 1 10.6,2.15 0.09013878,0.09013878 0 0 0 0.06,-0.17 38.29,38.29 0 0 0 -20.54,-2.08 c -0.16,-0.02 -0.16,0.11 0,0.1 z"
           style="fill:#263238"
           id="path98" /><path
           d="m 303.38,140.67 c 3.23,0 8.91,0.16 18.41,3.47 a 0.03,0 90 0 0 0,-0.06 34.41,34.41 0 0 0 -18.43,-3.57 c -0.18,0.02 -0.2,0.15 0.02,0.16 z"
           style="fill:#263238"
           id="path100" /><path
           d="m 302.69,137 c 5.49,0.28 8.92,1.16 14.44,2.82 a 0.03,0 90 0 0 0,-0.06 c -6.08,-2.54 -8.57,-2.78 -14.47,-3 -0.19,0.08 -0.18,0.24 0.03,0.24 z"
           style="fill:#263238"
           id="path102" /><path
           d="m 303.58,156.64 c -1.43,0.67 -1.08,1.42 1.65,2.05 2.73,0.63 14.08,0.82 13.68,4.78 -0.4,3.96 -16.41,3.46 -20.88,2.06 -4.47,-1.4 -11.2,-5.24 -11.2,-5.24 3.17,-0.53 10.61,-2.54 16.75,-3.65 z"
           style="fill:#eb9481"
           id="path104" /><path
           d="m 229.4,152.61 c -0.07,1.71 -0.23,3.45 -0.47,5.18 0,-0.07 0,-0.13 0.07,-0.19 0.33,-0.9 0.66,-1.82 1.06,-2.69 0,0 0.1,0 0.09,0 a 14.42,14.42 0 0 1 -0.86,2.78 c -0.18,0.43 -0.35,0.85 -0.54,1.27 -0.12,0.77 -0.26,1.53 -0.41,2.29 -0.3,1.43 -1.65,7.51 -2,8.54 -0.06,0.21 -0.32,0.16 -0.3,-0.08 0.07,-1.12 1.2,-7.45 1.43,-8.89 a 77.71,77.71 0 0 1 1.79,-8.25 c 0.05,-0.05 0.15,-0.01 0.14,0.04 z"
           style="fill:#263238"
           id="path106" /><path
           d="m 219,198.08 c -2.67,1.37 -6.11,3.5 -21.61,0.45 -1,-0.2 -1.94,-0.44 -2.92,-0.73 -14.53,-4.36 -32,-21.45 -32.95,-22.66 0,0 23.09,-37.43 52.62,-49.2 3.65,-1.45 9.69,1.35 13,4.84 1.19,1.25 3.78,10.44 2.79,17.88 -0.99,7.44 -8.27,48.05 -10.93,49.42 z"
           style="fill:#90caf9"
           id="path108" /><path
           d="m 216.92,148.32 a 11.34,11.34 0 0 1 -0.65,4.66 10.85,10.85 0 0 1 0.65,-4.66 z"
           style="fill:#ffffff"
           id="path110" /><path
           d="m 206.85,173.81 a 10.33,10.33 0 0 1 -0.08,2.36 9.8,9.8 0 0 1 -0.57,2.3 9.85,9.85 0 0 1 0.08,-2.37 10.37,10.37 0 0 1 0.57,-2.29 z"
           style="fill:#ffffff"
           id="path112" /><path
           d="m 189.74,154.54 a 11.35,11.35 0 0 1 -0.65,4.67 10.93,10.93 0 0 1 0.65,-4.67 z"
           style="fill:#ffffff"
           id="path114" /><path
           d="m 223.51,172.51 a 10.39,10.39 0 0 1 -0.08,2.37 9.8,9.8 0 0 1 -0.57,2.3 9.85,9.85 0 0 1 0.08,-2.37 10.32,10.32 0 0 1 0.57,-2.3 z"
           style="fill:#ffffff"
           id="path116" /><path
           d="m 201.54,151.24 a 10.33,10.33 0 0 1 2.36,0.07 9.83,9.83 0 0 1 2.3,0.58 11.27,11.27 0 0 1 -4.66,-0.65 z"
           style="fill:#ffffff"
           id="path118" /><path
           d="m 182.12,169.65 a 11.34,11.34 0 0 1 4.66,0.65 10.85,10.85 0 0 1 -4.66,-0.65 z"
           style="fill:#ffffff"
           id="path120" /><path
           d="m 205,189.58 a 11.27,11.27 0 0 1 4.66,0.65 10.91,10.91 0 0 1 -4.66,-0.65 z"
           style="fill:#ffffff"
           id="path122" /><path
           d="m 176.13,182.34 a 11.34,11.34 0 0 1 4.66,0.65 10.91,10.91 0 0 1 -4.66,-0.65 z"
           style="fill:#ffffff"
           id="path124" /><path
           d="m 216.77,130.4 a 11.34,11.34 0 0 1 4.66,0.65 11.34,11.34 0 0 1 -4.66,-0.65 z"
           style="fill:#ffffff"
           id="path126" /><path
           d="m 211.12,136.78 a 9.75,9.75 0 0 1 -1.72,1.62 10.62,10.62 0 0 1 -2,1.22 10.17,10.17 0 0 1 1.7,-1.62 10.54,10.54 0 0 1 2.02,-1.22 z"
           style="fill:#ffffff"
           id="path128" /><path
           d="m 180.33,154.91 a 10.11,10.11 0 0 1 -1.73,1.61 9.43,9.43 0 0 1 -2,1.22 10.53,10.53 0 0 1 1.73,-1.61 9.68,9.68 0 0 1 2,-1.22 z"
           style="fill:#ffffff"
           id="path130" /><path
           d="m 218.78,163.09 a 10.17,10.17 0 0 1 -1.73,1.62 9.68,9.68 0 0 1 -2,1.22 10.17,10.17 0 0 1 1.73,-1.62 10.32,10.32 0 0 1 2,-1.22 z"
           style="fill:#ffffff"
           id="path132" /><path
           d="m 193.88,178.77 a 10.17,10.17 0 0 1 -1.73,1.62 9.86,9.86 0 0 1 -2,1.22 10.17,10.17 0 0 1 1.73,-1.62 10.32,10.32 0 0 1 2,-1.22 z"
           style="fill:#ffffff"
           id="path134" /><path
           d="m 228.32,141.67 a 10.17,10.17 0 0 1 -1.73,1.62 10.62,10.62 0 0 1 -2,1.22 10.17,10.17 0 0 1 1.73,-1.62 9.86,9.86 0 0 1 2,-1.22 z"
           style="fill:#ffffff"
           id="path136" /><path
           d="m 227.8,159.84 a 10.17,10.17 0 0 1 -1.62,-1.73 9.61,9.61 0 0 1 -1.22,-2 9.75,9.75 0 0 1 1.62,1.72 10.93,10.93 0 0 1 1.22,2.01 z"
           style="fill:#ffffff"
           id="path138" /><path
           d="m 172.3,172.36 a 10.17,10.17 0 0 1 -1.62,-1.73 10.32,10.32 0 0 1 -1.22,-2 10.17,10.17 0 0 1 1.62,1.73 9.86,9.86 0 0 1 1.22,2 z"
           style="fill:#ffffff"
           id="path140" /><path
           d="m 221.05,187.25 a 9.75,9.75 0 0 1 -1.62,-1.72 10.62,10.62 0 0 1 -1.22,-2 10.17,10.17 0 0 1 1.62,1.73 10.05,10.05 0 0 1 1.22,1.99 z"
           style="fill:#ffffff"
           id="path142" /><path
           d="m 196.62,144.8 a 10.11,10.11 0 0 1 -1.62,-1.72 10.93,10.93 0 0 1 -1.22,-2 9.75,9.75 0 0 1 1.62,1.72 10.93,10.93 0 0 1 1.22,2 z"
           style="fill:#ffffff"
           id="path144" /><path
           d="m 197.05,195.73 a 10.17,10.17 0 0 1 -1.62,-1.73 10.54,10.54 0 0 1 -1.22,-2 9.75,9.75 0 0 1 1.62,1.72 10.42,10.42 0 0 1 1.22,2.01 z"
           style="fill:#ffffff"
           id="path146" /><path
           d="m 201.2,165.69 a 10.53,10.53 0 0 1 -1.61,-1.73 9.43,9.43 0 0 1 -1.22,-2 10.11,10.11 0 0 1 1.61,1.73 9.68,9.68 0 0 1 1.22,2 z"
           style="fill:#ffffff"
           id="path148" /><path
           d="m 221.73,140.75 c -3.77,-0.7 -7.31,-8.49 -7.76,-13.73 0,-0.36 1.76,-3.21 3.77,-6.78 1.22,-2.17 2.51,-4.62 3.54,-6.94 0.21,-0.47 1.44,1.12 1.44,1.12 l 2.68,2 8.85,6.79 a 40.34,40.34 0 0 0 -5.33,8.27 5,5 0 0 0 -0.32,1 1.22,1.22 0 0 0 0,0.17 c -0.55,1.98 -3.24,8.77 -6.87,8.1 z"
           style="fill:#eb9481"
           id="path150" /><path
           d="m 228.6,132.53 a 1.22,1.22 0 0 0 0,0.17 9.91,9.91 0 0 1 -1.53,-0.59 c -9.69,-4.54 -5.42,-17.52 -5.42,-17.52 l 3.8,1.88 8.85,6.79 a 40.34,40.34 0 0 0 -5.33,8.27 5,5 0 0 0 -0.37,1 z"
           style="fill:#263238"
           id="path152" /><path
           d="m 244.42,95.58 c 0,0 4.43,2.81 4.45,7.81 0.02,5 -2,9.89 -2.42,10.07 -0.42,0.18 -2.03,-17.88 -2.03,-17.88 z"
           style="fill:#263238"
           id="path154" /><path
           d="m 222.44,98.18 c -2.66,5.25 -2.52,21.8 0.8,26.06 4.82,6.18 14.1,8.31 19.71,2.2 5.43,-5.92 4.87,-27.48 1,-31.5 -5.63,-5.94 -17.57,-4.53 -21.51,3.24 z"
           style="fill:#eb9481"
           id="path156" /><path
           d="m 222.87,124 v 0"
           style="fill:none;stroke:#f5a79e;stroke-width:0px;stroke-linecap:round;stroke-linejoin:round"
           id="path158" /><path
           d="m 236.56,111.43 c 0,0 -0.09,0.06 -0.08,0.1 0.06,1.13 -0.06,2.43 -1.07,2.83 0,0 0,0.07 0,0.06 1.25,-0.2 1.39,-1.93 1.15,-2.99 z"
           style="fill:#263238"
           id="path160" /><path
           d="m 235.53,110.28 c -1.82,-0.1 -1.88,3.54 -0.19,3.63 1.69,0.09 1.71,-3.55 0.19,-3.63 z"
           style="fill:#263238"
           id="path162" /><path
           d="m 242.73,111.39 c 0,0 0.09,0 0.09,0.1 -0.06,1.13 0.07,2.43 1.09,2.82 0,0 0,0.07 0,0.06 -1.26,-0.19 -1.41,-1.92 -1.18,-2.98 z"
           style="fill:#263238"
           id="path164" /><path
           d="m 243.76,110.23 c 1.81,-0.11 1.9,3.53 0.22,3.63 -1.68,0.1 -1.74,-3.54 -0.22,-3.63 z"
           style="fill:#263238"
           id="path166" /><path
           d="m 234.39,107.51 a 14.64,14.64 0 0 0 1.41,-0.48 2.4,2.4 0 0 0 1.36,-0.76 0.77,0.77 0 0 0 -0.11,-0.93 1.91,1.91 0 0 0 -1.92,-0.23 2.83,2.83 0 0 0 -1.64,1.19 0.83,0.83 0 0 0 0.9,1.21 z"
           style="fill:#263238"
           id="path168" /><path
           d="m 245,109.12 a 14.65,14.65 0 0 1 -1.44,-0.4 2.4,2.4 0 0 1 -1.39,-0.69 0.75,0.75 0 0 1 0.06,-0.93 1.89,1.89 0 0 1 1.9,-0.33 2.8,2.8 0 0 1 1.7,1.1 0.82,0.82 0 0 1 -0.83,1.25 z"
           style="fill:#263238"
           id="path170" /><path
           d="m 234,122.12 c 0.27,0.27 0.53,0.63 0.94,0.67 a 3,3 0 0 0 1.22,-0.26 c 0,0 0.07,0 0,0.06 a 1.51,1.51 0 0 1 -1.44,0.59 1.21,1.21 0 0 1 -0.88,-1 0.08544004,0.08544004 0 0 1 0.16,-0.06 z"
           style="fill:#263238"
           id="path172" /><path
           d="m 240.54,117.3 c 0,0 0.05,1.68 0,2.47 a 16.48,16.48 0 0 0 -4.61,0.16 c -0.36,0.08 -0.32,-0.21 0.09,-0.4 a 6.76,6.76 0 0 1 3.92,-0.52 c 0.08,-0.21 -0.13,-2.6 0,-2.59 a 6.68,6.68 0 0 1 1.74,0.6 c 0,-3.52 -0.56,-7 -0.51,-10.52 0,-0.12 0.19,-0.14 0.21,0 a 56.64,56.64 0 0 1 1,11.3 c 0.01,0.43 -1.54,-0.34 -1.84,-0.5 z"
           style="fill:#263238"
           id="path174" /><path
           d="m 238.29,119.17 a 5,5 0 0 1 -2.1,2.51 c -1.51,0.61 -2,-0.76 -0.48,-2 a 4.88,4.88 0 0 1 2.58,-0.51 z"
           style="fill:#263238"
           id="path176" /><path
           d="m 236.72,121.37 a 2,2 0 0 1 -0.53,0.31 c -1.39,0.56 -1.94,-0.55 -0.82,-1.67 0.76,0.06 1.63,0.34 1.35,1.36 z"
           style="fill:#ff99ba"
           id="path178" /><path
           d="m 221.68,112.33 c 1.83,0.56 3.93,-4.94 4.53,-7 0.52,-1.86 1.12,-7.77 1.21,-8.18 0.09,-0.41 8,5.23 12.58,3.89 4.58,-1.34 7.69,-5.49 7.76,-7.42 0.07,-1.93 -5.66,-6.83 -10.61,-7.08 -4.95,-0.25 -11.66,6 -11.66,6 a 23,23 0 0 0 2.2,-2.94 c -0.08,-0.22 -3.28,1.06 -3.87,3.34 0,0 0.64,-2.87 0.4,-2.92 -0.24,-0.05 -2.73,2.4 -2.17,4.26 0,0 -2.88,2.49 -3.14,5.22 -0.26,2.73 0.62,12.17 2.77,12.83 z"
           style="fill:#263238"
           id="path180" /><path
           d="m 243.28,100 a 15.21,15.21 0 0 1 -4.35,1.56 10.33,10.33 0 0 1 -5,-0.8 15.36,15.36 0 0 1 -4.36,-2.58 c -1.15,-0.94 -2.18,-2.09 -3.41,-2.93 -0.31,-0.22 -0.66,0.23 -0.47,0.51 a 16.52,16.52 0 0 0 8.36,6.16 9.53,9.53 0 0 0 9.22,-1.88 c 0,0 0.03,-0.04 0.01,-0.04 z"
           style="fill:#263238"
           id="path182" /><path
           d="m 223.59,111.84 c 0,0 -2.84,-5.76 -5.4,-4.83 -2.56,0.93 -1,8.9 1.63,10.36 a 2.85,2.85 0 0 0 4,-0.94 z"
           style="fill:#eb9481"
           id="path184" /><path
           d="m 218.7,109.28 c 0,0 -0.06,0 0,0.08 1.82,1.08 2.56,3 3,5 a 1.57,1.57 0 0 0 -2.26,-0.78 c -0.06,0 0,0.11 0,0.11 a 1.75,1.75 0 0 1 1.81,0.9 8.45,8.45 0 0 1 0.68,1.68 c 0.06,0.19 0.39,0.14 0.36,-0.07 v 0 c 0.43,-2.49 -0.97,-6.26 -3.59,-6.92 z"
           style="fill:#263238"
           id="path186" /><path
           d="m 204.84,137.56 c -2,11.33 10.28,49.5 18.15,56.63 11.71,10.6 33.36,17.57 41.21,19.84 3.42,1 12.88,-23.07 9.42,-24.66 C 266.21,186 243.19,178.8 241,177 c -2.19,-1.8 -15.39,-20.87 -21.27,-31.85 -7.87,-14.78 -13.9,-13.32 -14.89,-7.59 z"
           style="fill:#eb9481"
           id="path188" /><path
           d="m 267.79,187.25 c 0,0 10.22,2.61 16.81,4.62 3.68,1.13 9.82,3.62 12.15,5.68 3.48,3.09 16.06,18.21 12.46,21.34 -3.26,2.84 -12.42,-11.53 -12.42,-11.53 0,0 10.52,13.68 6,16.37 -4.52,2.69 -12.79,-14.92 -12.79,-14.92 0,0 10.49,14.3 5.36,16.33 -3.88,1.53 -12.2,-14 -12.2,-14 0,0 8.94,12.35 5,14.1 -4.34,1.94 -12.91,-11.92 -12.91,-11.92 -10.72,2.77 -17,-0.3 -21.13,-3 -0.97,-0.66 13.67,-23.07 13.67,-23.07 z"
           style="fill:#eb9481"
           id="path190" /><path
           d="m 293.45,202.39 c 1.3,1.56 2.62,3.14 3.77,4.81 1.15,1.67 2.24,3.39 3.23,5.16 a 34.62,34.62 0 0 1 3.2,7.26 c -1.72,-4.4 -5.75,-10.45 -6.9,-12.12 -1.15,-1.67 -2.22,-3.4 -3.36,-5.07 -0.03,-0.04 0.03,-0.08 0.06,-0.04 z"
           style="fill:#263238"
           id="path192" /><path
           d="m 287.34,206.44 c 2.22,1.76 6.87,8.3 8.66,12.69 0.08,0.18 0,0.17 -0.13,0 -1.4,-2.17 -7.08,-10.57 -8.58,-12.66 -0.03,-0.03 0.02,-0.06 0.05,-0.03 z"
           style="fill:#263238"
           id="path194" /><path
           d="m 281.47,209 a 31.33,31.33 0 0 1 6.42,10 c 0.07,0.18 -0.07,0.15 -0.18,0 -2.07,-3.37 -3.67,-6 -6.35,-9.91 -0.04,-0.09 0.05,-0.18 0.11,-0.09 z"
           style="fill:#263238"
           id="path196" /><path
           d="m 216,138.39 c -9.13,-12.91 -14.59,-8.13 -12.76,5.89 1.72,13.11 6.31,28.73 6.31,28.73 l 23,-11.16 c 0,0 -10.74,-15.19 -16.55,-23.46 z"
           style="fill:#90caf9"
           id="path198" /><path
           d="m 221.55,143.47 a 10.28,10.28 0 0 1 0.65,2.27 10.39,10.39 0 0 1 0.15,2.37 10.34,10.34 0 0 1 -0.64,-2.28 9.77,9.77 0 0 1 -0.16,-2.36 z"
           style="fill:#ffffff"
           id="path200" /><path
           d="m 207.92,151.32 a 11,11 0 0 1 4.63,-0.8 10.26,10.26 0 0 1 -2.27,0.64 9.8,9.8 0 0 1 -2.36,0.16 z"
           style="fill:#ffffff"
           id="path202" /><path
           d="m 208.51,131.24 a 11.16,11.16 0 0 1 -2.71,3.85 11.16,11.16 0 0 1 2.71,-3.85 z"
           style="fill:#ffffff"
           id="path204" /><path
           d="m 228,157.35 a 10.44,10.44 0 0 1 -1.15,2.07 10.11,10.11 0 0 1 -1.56,1.78 11.16,11.16 0 0 1 2.71,-3.85 z"
           style="fill:#ffffff"
           id="path206" /><path
           d="m 212,165.18 a 10,10 0 0 1 -2.07,-1.15 10.06,10.06 0 0 1 -1.78,-1.56 11.16,11.16 0 0 1 3.85,2.71 z"
           style="fill:#ffffff"
           id="path208" /><path
           d="m 219,142.28 c 1.23,1.69 2.5,3.34 3.76,5 q -0.48,-1.26 -0.84,-2.55 a 0.03,0 -180 0 0 0.06,0 c 0.25,0.66 0.54,1.31 0.78,2 l 0.36,1 a 1.8,1.8 0 0 1 0.08,0.21 c 1,1.29 2,2.58 2.92,3.9 1.13,1.58 2.22,3.18 3.32,4.78 1.1,1.6 2.21,3.59 3.4,5.2 0.11,0.14 -2,1 -2.23,1.11 -0.23,0.11 -0.35,-0.08 -0.13,-0.15 0.22,-0.07 1.9,-1.1 1.92,-1.12 -1.1,-1.62 -2.37,-3.11 -3.52,-4.68 -1.15,-1.57 -2.29,-3.14 -3.4,-4.73 -2.25,-3.24 -4.31,-6.6 -6.55,-9.85 z"
           style="fill:#263238"
           id="path210" /><path
           d="m 203.78,153.56 c 0.35,0.68 0.73,1.35 1,2.05 l 0.38,0.87 c -0.53,-2.49 -1,-5 -1.55,-7.49 0,0 0,0 0,0 1.06,4 2.13,8.09 3.11,12.15 0.93,3.88 2.06,7.8 2.6,11.76 a 13.05,13.05 0 0 1 2.16,-0.73 10.66,10.66 0 0 1 -2.38,1.15 124.82,124.82 0 0 1 -3,-12.24 c -0.25,-1.12 -0.48,-2.24 -0.72,-3.36 -0.26,-0.68 -0.57,-1.33 -0.88,-2 -0.31,-0.67 -0.59,-1.42 -0.87,-2.13 0.06,-0.04 0.13,-0.08 0.15,-0.03 z"
           style="fill:#263238"
           id="path212" /><path
           d="m 209.89,169.15 c 3.2,-1.8 16.57,-8.72 19.56,-10 0.21,-0.09 0.32,0 0.11,0.14 a 201.57,201.57 0 0 1 -19.6,10 c -0.08,0.02 -0.16,-0.09 -0.07,-0.14 z"
           style="fill:#263238"
           id="path214" /></g><g
         id="freepik--Folder--inject-8"><polygon
           points="315.69,182.2 620.37,182.2 576.32,432.05 271.64,432.05 "
           style="fill:#90caf9"
           id="polygon217" /><polygon
           points="315.69,182.2 422.4,182.2 419.97,156.32 320.26,156.32 "
           style="fill:#90caf9"
           id="polygon219" /><g
           style="opacity:0.1"
           id="g225"><polygon
             points="315.69,182.2 620.37,182.2 576.32,432.05 271.64,432.05 "
             id="polygon221" /><polygon
             points="315.69,182.2 422.4,182.2 419.97,156.32 320.26,156.32 "
             id="polygon223" /></g><path
           d="m 309.5,166.88 a 19.17,19.17 0 0 1 0,-8.7 19.17,19.17 0 0 1 0,8.7 z"
           style="fill:#263238"
           id="path227" /><path
           d="m 300.64,169.44 a 17,17 0 0 1 -2.61,-3.52 17.35,17.35 0 0 1 -1.75,-4 16.58,16.58 0 0 1 2.61,3.51 17.61,17.61 0 0 1 1.75,4.01 z"
           style="fill:#263238"
           id="path229" /><path
           d="m 294.24,176.09 a 19.18,19.18 0 0 1 -7.53,-4.35 17.16,17.16 0 0 1 4,1.74 17.58,17.58 0 0 1 3.53,2.61 z"
           style="fill:#263238"
           id="path231" /><path
           d="m 292,185.05 a 19.17,19.17 0 0 1 -8.7,0 19.17,19.17 0 0 1 8.7,0 z"
           style="fill:#263238"
           id="path233" /><path
           d="m 294.6,193.91 a 17.64,17.64 0 0 1 -3.52,2.61 17.16,17.16 0 0 1 -4,1.74 17,17 0 0 1 3.52,-2.61 16.8,16.8 0 0 1 4,-1.74 z"
           style="fill:#263238"
           id="path235" /><path
           d="m 301.24,200.3 a 19.13,19.13 0 0 1 -4.35,7.54 16.83,16.83 0 0 1 1.75,-4 17.31,17.31 0 0 1 2.6,-3.54 z"
           style="fill:#263238"
           id="path237" /><path
           d="m 310.2,202.51 a 17.45,17.45 0 0 1 0.5,4.35 17,17 0 0 1 -0.5,4.35 16.57,16.57 0 0 1 -0.5,-4.35 17.45,17.45 0 0 1 0.5,-4.35 z"
           style="fill:#263238"
           id="path239" /><path
           d="m 319.06,200 a 17,17 0 0 1 2.61,3.52 16.8,16.8 0 0 1 1.74,4 19.13,19.13 0 0 1 -4.35,-7.54 z"
           style="fill:#263238"
           id="path241" /><path
           d="m 325.45,193.3 a 16.8,16.8 0 0 1 4,1.74 17,17 0 0 1 3.52,2.61 16.8,16.8 0 0 1 -4,-1.74 17,17 0 0 1 -3.52,-2.61 z"
           style="fill:#263238"
           id="path243" /><path
           d="m 327.66,184.34 a 19.22,19.22 0 0 1 8.71,0 19.22,19.22 0 0 1 -8.71,0 z"
           style="fill:#263238"
           id="path245" /><path
           d="m 325.1,175.48 a 17.31,17.31 0 0 1 3.52,-2.6 16.44,16.44 0 0 1 4,-1.75 19.13,19.13 0 0 1 -7.54,4.35 z"
           style="fill:#263238"
           id="path247" /><path
           d="m 318.45,169.09 a 17.58,17.58 0 0 1 1.74,-4 17,17 0 0 1 2.61,-3.52 16.8,16.8 0 0 1 -1.74,4 17,17 0 0 1 -2.61,3.52 z"
           style="fill:#263238"
           id="path249" /><polygon
           points="227.18,191.27 532.52,191.27 575.87,432.05 270.54,432.05 "
           style="fill:#90caf9"
           id="polygon251" /><circle
           cx="332.98999"
           cy="325.76999"
           r="12.69"
           style="fill:#263238"
           id="circle253" /><circle
           cx="433.31"
           cy="325.76999"
           r="12.69"
           style="fill:#263238"
           id="circle255" /><path
           d="m 401.38,340.49 -0.7,-1.33 c -0.06,-0.12 -6.62,-12.24 -19.81,-12.24 -12,0 -15,11.41 -15.08,11.9 l -0.36,1.45 -2.91,-0.7 0.35,-1.46 c 0,-0.14 3.58,-14.19 18,-14.19 15,0 22.17,13.28 22.47,13.85 l 0.7,1.32 z"
           style="fill:#263238"
           id="path257" /></g><g
         id="freepik--Fly--inject-8"><path
           d="m 555.71,324.8 -0.21,-1 c 0.65,-0.14 1.29,-0.29 1.93,-0.46 l 0.25,1 c -0.68,0.17 -1.31,0.32 -1.97,0.46 z"
           style="fill:#263238"
           id="path260" /><path
           d="m 561.55,323.19 -0.32,-0.94 c 1.25,-0.43 2.5,-0.9 3.71,-1.41 l 0.39,0.92 c -1.23,0.52 -2.5,1 -3.78,1.43 z M 569,320 l -0.45,-0.88 c 1.17,-0.61 2.34,-1.27 3.45,-2 l 0.52,0.85 c -1.14,0.79 -2.33,1.46 -3.52,2.03 z m 6.88,-4.23 -0.59,-0.81 c 1.08,-0.79 2.12,-1.62 3.1,-2.47 l 0.66,0.75 c -1.05,0.91 -2.05,1.76 -3.18,2.57 z m 6.1,-5.32 -0.73,-0.69 c 0.92,-1 1.79,-2 2.59,-3 l 0.79,0.61 c -0.83,1.1 -1.72,2.13 -2.63,3.12 z m 4.95,-6.4 -0.85,-0.53 a 29.08,29.08 0 0 0 1.84,-3.48 l 0.92,0.41 a 33.74,33.74 0 0 1 -1.92,3.64 z m 3.31,-7.42 -1,-0.28 a 26.14,26.14 0 0 0 0.81,-3.83 l 1,0.13 a 25.66,25.66 0 0 1 -0.82,4.02 z m 1.11,-8 h -1 v -0.29 c 0,-1.21 -0.07,-2.44 -0.19,-3.65 l 1,-0.1 a 36.24,36.24 0 0 1 0.2,3.75 z m -1.8,-7.83 a 39.3,39.3 0 0 0 -1,-3.82 l 1,-0.3 c 0.41,1.3 0.76,2.62 1,3.91 z m -2.37,-7.53 c -0.48,-1.18 -1,-2.39 -1.64,-3.61 l 0.9,-0.45 c 0.61,1.24 1.17,2.48 1.66,3.68 z m -3.5,-7.13 c -0.62,-1.09 -1.3,-2.24 -2,-3.42 l 0.85,-0.53 c 0.73,1.19 1.42,2.35 2,3.46 z m -4.18,-6.79 c -0.73,-1.1 -1.47,-2.21 -2.23,-3.32 l 0.83,-0.56 c 0.76,1.11 1.5,2.22 2.23,3.34 z m -4.5,-6.62 c -0.75,-1.1 -1.51,-2.21 -2.25,-3.31 l 0.83,-0.56 c 0.74,1.1 1.49,2.21 2.24,3.3 z m -4.47,-6.66 c -0.73,-1.12 -1.44,-2.26 -2.14,-3.4 l 0.85,-0.52 c 0.7,1.14 1.41,2.26 2.13,3.38 z m -4.17,-6.87 c -0.68,-1.21 -1.31,-2.41 -1.88,-3.56 l 0.9,-0.45 c 0.56,1.14 1.19,2.32 1.85,3.52 z m -3.55,-7.2 c -0.53,-1.25 -1,-2.52 -1.44,-3.76 l 1,-0.32 c 0.42,1.21 0.89,2.46 1.41,3.69 z m -2.6,-7.63 c -0.33,-1.3 -0.62,-2.63 -0.84,-4 l 1,-0.16 c 0.22,1.28 0.49,2.58 0.82,3.86 z m -1.34,-8 c -0.1,-1.23 -0.15,-2.47 -0.15,-3.71 v -0.33 h 1 v 0.32 c 0,1.21 0,2.43 0.15,3.63 z m 1,-8 -1,-0.1 c 0,-0.27 0.05,-0.55 0.08,-0.84 0.12,-1.07 0.27,-2.14 0.45,-3.16 l 1,0.17 c -0.17,1 -0.32,2.05 -0.44,3.1 0.04,0.31 0.04,0.58 -0.04,0.86 z m 1.39,-7.78 -1,-0.27 c 0.37,-1.32 0.8,-2.61 1.28,-3.84 l 0.93,0.36 a 36.6,36.6 0 0 0 -1.16,3.78 z m 49.83,-5.83 c -0.56,0 -1.14,-0.08 -1.71,-0.16 -0.78,-0.11 -1.56,-0.24 -2.33,-0.39 l 0.2,-1 c 0.74,0.14 1.51,0.27 2.27,0.38 0.54,0.07 1.09,0.12 1.62,0.15 z m 4.11,-0.31 -0.21,-1 a 11.54,11.54 0 0 0 3.56,-1.38 l 0.52,0.85 a 12.45,12.45 0 0 1 -3.82,1.56 z m -51.06,-1.19 -0.89,-0.47 a 35.46,35.46 0 0 1 2.11,-3.46 l 0.82,0.57 a 32.66,32.66 0 0 0 -1.99,3.39 z m 39,-0.06 a 38.51,38.51 0 0 1 -3.8,-1.43 l 0.41,-0.92 a 34.09,34.09 0 0 0 3.69,1.39 z m 19,-3.12 -0.83,-0.56 a 7,7 0 0 0 1.22,-3.49 l 1,0.07 a 8,8 0 0 1 -1.36,4.01 z m -26.4,-0.15 a 36.69,36.69 0 0 1 -3.39,-2.23 l 0.59,-0.8 a 35.28,35.28 0 0 0 3.3,2.16 z m -27.1,-3.12 -0.74,-0.67 a 33.81,33.81 0 0 1 2.89,-2.85 l 0.66,0.75 a 33.41,33.41 0 0 0 -2.78,2.8 z m 20.59,-1.69 a 37,37 0 0 1 -2.83,-2.91 l 0.75,-0.66 a 36.84,36.84 0 0 0 2.75,2.83 z m 32.55,-2.71 a 9.77,9.77 0 0 0 -2.33,-3 l 0.66,-0.75 a 10.8,10.8 0 0 1 2.57,3.29 z m -47.22,-0.79 -0.57,-0.82 a 38.58,38.58 0 0 1 3.47,-2.11 l 0.47,0.88 a 37.77,37.77 0 0 0 -3.34,2.08 z m 9.34,-2.6 c -0.38,-0.54 -0.75,-1.09 -1.1,-1.66 l -1.3,0.51 -0.38,-0.92 1.15,-0.46 c -0.18,-0.3 -0.36,-0.6 -0.53,-0.9 l 0.87,-0.49 c 0.2,0.35 0.4,0.7 0.61,1 q 0.84,-0.3 1.71,-0.57 l 0.29,1 c -0.49,0.15 -1,0.31 -1.46,0.48 0.31,0.49 0.63,1 1,1.43 z m 32.33,-1.72 a 21.3,21.3 0 0 0 -3,-1.22 l -0.66,-0.21 0.29,-1 0.68,0.22 a 21.6,21.6 0 0 1 3.12,1.27 z m -27.18,-1.79 -0.21,-1 c 1.29,-0.29 2.63,-0.53 4,-0.72 l 0.15,1 c -1.32,0.21 -2.63,0.46 -3.91,0.75 z m 19.7,-0.54 c -1.25,-0.22 -2.57,-0.39 -3.92,-0.51 l 0.08,-1 c 1.39,0.12 2.74,0.29 4,0.52 z m -11.85,-0.58 -0.07,-1 c 1.19,-0.07 2.38,-0.11 3.56,-0.11 h 0.49 v 1 h -0.48 c -1.13,0.03 -2.31,0.06 -3.47,0.14 z M 580,172 c -0.54,-1.22 -1,-2.49 -1.45,-3.78 l 1,-0.31 c 0.42,1.26 0.89,2.5 1.41,3.69 z m -2.53,-7.68 c -0.3,-1.29 -0.55,-2.63 -0.74,-4 l 1,-0.14 c 0.19,1.32 0.43,2.63 0.72,3.9 z m -1.12,-8 c -0.05,-0.9 -0.08,-1.82 -0.08,-2.74 0,-0.43 0,-0.87 0,-1.3 h 1 c 0,0.43 0,0.85 0,1.28 0,0.9 0,1.81 0.07,2.68 z m 1.19,-8 -1,-0.1 c 0.14,-1.32 0.33,-2.67 0.56,-4 l 1,0.17 c -0.27,1.33 -0.46,2.61 -0.59,3.95 z m 1.37,-7.81 -1,-0.24 c 0.32,-1.29 0.69,-2.59 1.1,-3.89 l 1,0.31 c -0.45,1.31 -0.82,2.58 -1.13,3.84 z m 2.4,-7.57 -0.93,-0.36 c 0.49,-1.25 1,-2.5 1.61,-3.71 l 0.9,0.44 c -0.6,1.2 -1.13,2.42 -1.61,3.69 z m 3.44,-7.13 -0.87,-0.51 c 0.68,-1.15 1.41,-2.3 2.17,-3.4 l 0.82,0.57 c -0.78,1.1 -1.49,2.22 -2.15,3.36 z m 4.51,-6.51 -0.78,-0.63 c 0.84,-1 1.74,-2.06 2.67,-3 l 0.72,0.69 c -0.94,0.94 -1.82,1.94 -2.64,2.96 z m 5.44,-5.76 -0.67,-0.74 c 1,-0.89 2,-1.77 3.07,-2.62 l 0.62,0.79 c -1.07,0.85 -2.09,1.72 -3.05,2.59 z m 6.21,-4.94 -0.57,-0.83 c 1.09,-0.75 2.23,-1.49 3.39,-2.19 l 0.51,0.85 c -1.16,0.71 -2.24,1.44 -3.36,2.19 z m 6.79,-4.13 -0.47,-0.88 c 1.18,-0.63 2.4,-1.23 3.62,-1.79 l 0.42,0.91 c -1.27,0.57 -2.44,1.17 -3.6,1.78 z m 7.23,-3.32 -0.37,-0.94 c 1.26,-0.49 2.53,-1 3.79,-1.37 l 0.32,1 c -1.27,0.38 -2.53,0.84 -3.77,1.33 z"
           style="fill:#263238"
           id="path262" /><path
           d="m 622.64,98.62 -0.25,-1 c 1.24,-0.32 2,-0.46 2,-0.46 l 0.18,1 c 0,0 -0.72,0.15 -1.93,0.46 z"
           style="fill:#263238"
           id="path264" /><path
           d="m 640.32,92.16 c -2.55,-7.9 -19.63,-5.06 -16.3,5.27 3.33,10.33 18.85,2.64 16.3,-5.27 z"
           style="fill:#263238"
           id="path266" /><path
           d="m 614.73,89 c 0.13,-3.47 4.95,-6.14 11.77,-4.91 6.82,1.23 13.23,5.83 13.23,5.83 0,0 -6.73,4.08 -13.62,4.83 C 619.22,95.5 614.6,92.46 614.73,89 Z"
           style="fill:#ebebeb"
           id="path268" /><path
           d="m 639.73,89.9 c -3.54,0 -7.07,-0.1 -10.6,-0.21 -3.53,-0.11 -7.07,-0.29 -10.6,-0.57 3.54,0 7.08,0.09 10.61,0.2 3.53,0.11 7.07,0.29 10.59,0.58 z"
           style="fill:#263238"
           id="path270" /><path
           d="m 621.58,85.91 a 29.75,29.75 0 0 1 5.65,3.53 26.64,26.64 0 0 1 -2.92,-1.6 28.63,28.63 0 0 1 -2.73,-1.93 z"
           style="fill:#263238"
           id="path272" /><path
           d="m 630.85,89.57 a 32.47,32.47 0 0 1 -5.85,3.78 32.47,32.47 0 0 1 5.88,-3.78 z"
           style="fill:#263238"
           id="path274" /><path
           d="m 631.88,87.62 a 7.24,7.24 0 0 1 2.58,2.08 6.85,6.85 0 0 1 -1.41,-0.89 7.32,7.32 0 0 1 -1.17,-1.19 z"
           style="fill:#263238"
           id="path276" /><path
           d="m 621.23,109.55 c 2.13,2.74 7.6,2.08 12.41,-2.9 4.81,-4.98 7.36,-12.47 7.36,-12.47 0,0 -7.88,0.6 -13.89,4 -6.01,3.4 -8.02,8.62 -5.88,11.37 z"
           style="fill:#ebebeb"
           id="path278" /><path
           d="m 641,94.18 c -2.88,2 -5.68,4.22 -8.49,6.37 -2.81,2.15 -5.56,4.37 -8.25,6.66 2.88,-2 5.68,-4.21 8.48,-6.36 2.8,-2.15 5.53,-4.37 8.26,-6.67 z"
           style="fill:#263238"
           id="path280" /><path
           d="m 628.58,108 a 28.53,28.53 0 0 0 1.43,-3 26.73,26.73 0 0 0 1.08,-3.16 27.77,27.77 0 0 0 -1.43,3 28.52,28.52 0 0 0 -1.08,3.16 z"
           style="fill:#263238"
           id="path282" /><path
           d="m 634,99.64 a 33.06,33.06 0 0 0 -7,0.37 29.2,29.2 0 0 0 3.5,0 31.11,31.11 0 0 0 3.5,-0.37 z"
           style="fill:#263238"
           id="path284" /><path
           d="m 635.93,100.63 a 7.15,7.15 0 0 0 0.62,-1.56 7.48,7.48 0 0 0 0.26,-1.65 7.45,7.45 0 0 0 -0.88,3.21 z"
           style="fill:#263238"
           id="path286" /><path
           d="m 640.32,92.16 a 3,3 0 1 1 1.93,-3.77 3,3 0 0 1 -1.93,3.77 z"
           style="fill:#455a64"
           id="path288" /><path
           d="m 642.16,97.87 a 3,3 0 1 1 1.93,-3.78 3,3 0 0 1 -1.93,3.78 z"
           style="fill:#455a64"
           id="path290" /></g><g
         id="freepik--speech-bubble--inject-8"><path
           d="m 314.31,95.32 a 24.92,24.92 0 0 1 -41.64,15.77 l -12.47,1.83 6.24,-10.78 a 24.92,24.92 0 1 1 47.87,-6.82 z"
           style="fill:#ffffff"
           id="path293" /><path
           d="m 314.31,95.32 a 25,25 0 0 1 -5,12.63 22.11,22.11 0 0 1 -4.89,4.83 24.26,24.26 0 0 1 -6,3.35 24.53,24.53 0 0 1 -6.71,1.6 25,25 0 0 1 -3.46,0.07 22.18,22.18 0 0 1 -3.45,-0.36 25.16,25.16 0 0 1 -12.33,-6.09 l 0.29,0.09 -12.45,1.91 -0.91,0.14 0.46,-0.8 6.2,-10.8 v 0.43 a 25.18,25.18 0 0 1 1.54,-22.21 25.54,25.54 0 0 1 7.8,-8.32 25.37,25.37 0 0 1 21.91,-3 25.53,25.53 0 0 1 9.61,5.9 25,25 0 0 1 7.39,20.63 z m 0,0 a 24.65,24.65 0 0 0 -28.26,-27 24.38,24.38 0 0 0 -10.29,4.06 25.69,25.69 0 0 0 -7.46,8.14 24.62,24.62 0 0 0 -3.17,10.54 24.87,24.87 0 0 0 1.76,10.94 l 0.09,0.22 -0.12,0.21 -6.28,10.76 -0.44,-0.66 12.48,-1.75 h 0.17 l 0.12,0.11 a 24.56,24.56 0 0 0 11.94,6.11 21.23,21.23 0 0 0 3.38,0.41 24.26,24.26 0 0 0 3.41,0 25,25 0 0 0 6.66,-1.47 23.44,23.44 0 0 0 6,-3.24 22.78,22.78 0 0 0 4.9,-4.77 25,25 0 0 0 5.11,-12.61 z"
           style="fill:#263238"
           id="path295" /><path
           d="m 277.34,104.35 a 2.42,2.42 0 0 1 2.44,-2.56 2.56,2.56 0 0 1 0,5.12 2.42,2.42 0 0 1 -2.44,-2.56 z m 1,-5.91 -0.58,-19.84 h 4 l -0.58,19.84 z"
           style="fill:#90caf9"
           id="path297" /><path
           d="m 286.85,104.35 a 2.42,2.42 0 0 1 2.43,-2.56 2.56,2.56 0 0 1 0,5.12 2.42,2.42 0 0 1 -2.43,-2.56 z m 1,-5.91 -0.55,-19.84 h 4 l -0.58,19.84 z"
           style="fill:#90caf9"
           id="path299" /><path
           d="m 296.35,104.35 a 2.42,2.42 0 0 1 2.44,-2.56 2.56,2.56 0 0 1 0,5.12 2.42,2.42 0 0 1 -2.44,-2.56 z m 1,-5.91 -0.58,-19.84 h 4 l -0.57,19.84 z"
           style="fill:#90caf9"
           id="path301" /></g></g></g></svg>
