<?xml version="1.0" encoding="UTF-8" standalone="no"?>
<!-- Created with Inkscape (http://www.inkscape.org/) -->

<svg
   xml:space="preserve"
   id="svg5"
   version="1.1"
   viewBox="0 0 200 200"
   height="200"
   width="200"
   inkscape:version="1.2.2 (732a01da63, 2022-12-09)"
   sodipodi:docname="toLOGO.svg"
   xmlns:inkscape="http://www.inkscape.org/namespaces/inkscape"
   xmlns:sodipodi="http://sodipodi.sourceforge.net/DTD/sodipodi-0.dtd"
   xmlns:xlink="http://www.w3.org/1999/xlink"
   xmlns="http://www.w3.org/2000/svg"
   xmlns:svg="http://www.w3.org/2000/svg"><sodipodi:namedview
     id="namedview7"
     pagecolor="#505050"
     bordercolor="#fff"
     borderopacity="1"
     inkscape:showpageshadow="0"
     inkscape:pageopacity="0"
     inkscape:pagecheckerboard="0"
     inkscape:deskcolor="#505050"
     inkscape:document-units="px"
     showgrid="false"
     inkscape:zoom="0.64"
     inkscape:cx="125.78125"
     inkscape:cy="4141.4063"
     inkscape:window-width="1494"
     inkscape:window-height="981"
     inkscape:window-x="2457"
     inkscape:window-y="0"
     inkscape:window-maximized="0"
     inkscape:current-layer="layer1"><inkscape:grid
       type="xygrid"
       id="grid18718" /></sodipodi:namedview><defs
     id="defs2"><linearGradient
       inkscape:collect="always"
       id="linearGradient16265"><stop
         style="stop-color:#fff;stop-opacity:1;"
         offset="0"
         id="stop16261" /><stop
         style="stop-color:#fff;stop-opacity:1;"
         offset="1"
         id="stop16263" /></linearGradient><linearGradient
       inkscape:collect="always"
       xlink:href="#linearGradient16265"
       id="linearGradient6223"
       x1="1057.1602"
       y1="1080"
       x2="1257.1602"
       y2="1280"
       gradientUnits="userSpaceOnUse"
       gradientTransform="translate(0.55242717,25.964077)" /></defs><g
     inkscape:label="Warstwa 1"
     inkscape:groupmode="layer"
     id="layer1"
     transform="translate(-1057.7126,-1105.9641)"><path
       id="path5200"
       style="fill:url(#linearGradient6223);fill-opacity:1;fill-rule:evenodd;stroke-width:20;stroke-linecap:round"
       d="m 1157.7126,1105.9641 a 100,99.999954 0 0 0 -100,100 100,99.999954 0 0 0 100,100 100,99.999954 0 0 0 100,-100 100,99.999954 0 0 0 -100,-100 z m 3.4804,39.3281 c 6.5495,0.016 10.2837,0.03 12.9864,0.066 2.7027,0.036 4.3727,0.095 6.791,0.1993 2.2761,0.097 4.0409,0.208 5.5859,0.3632 1.545,0.1553 2.872,0.3549 4.2734,0.627 1.328,0.2577 2.6231,0.5767 3.8789,0.9551 1.2559,0.3783 2.4723,0.815 3.6387,1.3066 1.1665,0.4916 2.2842,1.0392 3.3438,1.6367 1.0596,0.5976 2.0607,1.2453 2.9961,1.9414 0.6343,0.4721 1.2764,0.9955 1.9101,1.5547 0.6338,0.5592 1.2589,1.1546 1.8613,1.7695 0.6025,0.615 1.1822,1.2494 1.7227,1.8887 0.5405,0.6393 1.0424,1.2836 1.4902,1.916 0.7303,1.0312 1.4034,2.1415 2.0176,3.3184 0.6142,1.1769 1.1685,2.4204 1.6582,3.7207 0.4897,1.3003 0.9167,2.6575 1.2735,4.0586 0.3567,1.4011 0.6439,2.8467 0.8593,4.3262 0.2016,1.3848 0.3517,2.8379 0.4766,4.7636 0.1249,1.9257 0.2238,4.3237 0.3242,7.5977 0.051,1.6707 0.089,8.263 0.1035,15.2109 0.014,6.948 0,14.2521 -0.037,17.3418 -0.07,5.2442 -0.1116,6.7107 -0.2949,10.6172 -0.057,1.2248 -0.1291,2.3484 -0.2188,3.3965 -0.09,1.0481 -0.1964,2.022 -0.3261,2.9492 -0.1297,0.9273 -0.2815,1.8077 -0.459,2.6699 -0.1775,0.8623 -0.3801,1.7056 -0.6133,2.5586 -0.3695,1.3522 -0.8672,2.7981 -1.4316,4.1856 -0.5645,1.3874 -1.1957,2.7176 -1.8321,3.8379 -0.4555,0.8018 -1.66,2.6056 -2.2168,3.3203 -0.7802,1.0013 -1.6617,1.9989 -2.5996,2.9472 -0.9378,0.9484 -1.9328,1.8468 -2.9375,2.6504 -0.7832,0.6264 -2.7418,1.9537 -3.5957,2.4375 -0.7886,0.4469 -1.6168,0.8691 -2.4785,1.2618 -0.8616,0.3926 -1.7555,0.7573 -2.6738,1.0898 -0.9184,0.3325 -1.8616,0.632 -2.8203,0.8984 -0.9588,0.2665 -1.9331,0.4988 -2.916,0.6934 -0.8532,0.1689 -1.6893,0.311 -2.586,0.4336 -0.8966,0.1226 -1.8547,0.2269 -2.957,0.3164 -2.2047,0.1789 -4.9835,0.3044 -8.9844,0.4297 -1.9647,0.062 -27.5642,0.1261 -32.3613,0.082 -2.8697,-0.026 -5.9021,-0.1023 -8.5781,-0.209 -2.6761,-0.1067 -4.997,-0.2447 -6.4473,-0.3906 -0.9645,-0.097 -1.9081,-0.2183 -2.832,-0.3652 -0.9239,-0.147 -1.8288,-0.3192 -2.711,-0.5157 -0.8822,-0.1964 -1.7426,-0.4164 -2.582,-0.6621 -0.8394,-0.2456 -1.6576,-0.5161 -2.4531,-0.8105 -0.7956,-0.2944 -1.5678,-0.6143 -2.3184,-0.957 -0.7506,-0.3428 -1.479,-0.7089 -2.1836,-1.0997 -0.7046,-0.3907 -1.3855,-0.8058 -2.0429,-1.2441 -0.6575,-0.4382 -1.2911,-0.8993 -1.9004,-1.3848 -0.5689,-0.4532 -1.142,-0.9445 -1.7051,-1.4628 -0.5632,-0.5184 -1.1172,-1.0649 -1.6504,-1.6231 -0.5332,-0.5582 -1.0444,-1.1286 -1.5234,-1.7012 -0.4791,-0.5726 -0.9256,-1.1473 -1.3262,-1.709 -0.6547,-0.9178 -1.2636,-1.8912 -1.8242,-2.9179 -0.5607,-1.0267 -1.0731,-2.1061 -1.5352,-3.2305 -0.4621,-1.1243 -0.8736,-2.2951 -1.2324,-3.5058 -0.3589,-1.2108 -0.665,-2.4603 -0.916,-3.7461 -0.1662,-0.8514 -0.306,-1.6741 -0.4258,-2.5547 -0.1198,-0.8807 -0.2191,-1.8212 -0.3067,-2.9063 -0.175,-2.1701 -0.3007,-4.9224 -0.4316,-8.9609 -0.056,-1.7363 -0.084,-10.2138 -0.084,-18.6895 -1e-4,-8.4757 0.027,-16.9504 0.084,-18.6816 0.1117,-3.4418 0.2558,-6.6528 0.3672,-8.209 0.1102,-1.5396 0.2679,-2.9986 0.4785,-4.3906 0.2106,-1.392 0.4737,-2.7167 0.793,-3.9942 0.3193,-1.2774 0.6945,-2.507 1.1308,-3.7031 0.4363,-1.1961 0.9326,-2.36 1.4942,-3.5078 0.3582,-0.7322 0.7326,-1.4292 1.1308,-2.1016 0.3983,-0.6723 0.8215,-1.3206 1.2754,-1.955 0.454,-0.6345 0.9396,-1.2546 1.4649,-1.8731 0.5253,-0.6185 1.0908,-1.235 1.7031,-1.8594 0.6475,-0.6602 1.2922,-1.2737 1.9453,-1.8457 0.6531,-0.5719 1.3142,-1.1025 1.9883,-1.5976 0.6741,-0.4951 1.3616,-0.9533 2.0723,-1.3828 0.7106,-0.4296 1.4443,-0.8297 2.207,-1.2051 1.0903,-0.5366 2.2017,-1.0168 3.3457,-1.4414 1.144,-0.4246 2.3199,-0.7931 3.5391,-1.1113 1.2191,-0.3183 2.4809,-0.5853 3.7968,-0.8028 1.3159,-0.2174 2.687,-0.3855 4.1211,-0.5078 1.1309,-0.097 3.8151,-0.236 6.7188,-0.3496 1.9366,-0.076 4.7743,-0.1284 8.7715,-0.1562 3.9971,-0.028 9.1541,-0.032 15.7304,-0.016 z m -20.7636,11.0117 c -2.8009,0.066 -6.6007,0.212 -8.2715,0.3184 -1.1828,0.075 -2.2913,0.1817 -3.3399,0.3223 -1.0485,0.1405 -2.037,0.3146 -2.9824,0.5273 -0.9454,0.2127 -1.8475,0.464 -2.7207,0.7559 -0.8732,0.2919 -1.7168,0.6259 -2.5488,1.0039 -0.7146,0.3246 -1.4174,0.703 -2.1016,1.1328 -0.6841,0.4298 -1.3499,0.9096 -1.9902,1.4336 -0.6404,0.524 -1.2567,1.0939 -1.8399,1.7012 -0.5832,0.6072 -1.1338,1.2521 -1.6465,1.9316 -0.6053,0.8024 -1.1532,1.6779 -1.6425,2.623 -0.4894,0.9452 -0.9201,1.9604 -1.293,3.0469 -0.3729,1.0866 -0.6875,2.2442 -0.9434,3.4707 -0.2558,1.2265 -0.4533,2.5217 -0.5918,3.8867 -0.098,0.9622 -0.191,2.3976 -0.2734,4.1543 -0.082,1.7568 -0.154,3.8353 -0.207,6.084 -0.081,3.4195 -0.081,31.1294 0,34.5488 0.072,3.0563 0.1587,5.4334 0.2715,7.3633 0.1127,1.9299 0.251,3.4128 0.4316,4.6817 0.1613,1.1331 0.3781,2.2342 0.6465,3.291 0.2684,1.0568 0.5892,2.0688 0.957,3.0293 0.3679,0.9605 0.7825,1.8686 1.2422,2.7129 0.4597,0.8443 0.9639,1.6258 1.5078,2.334 0.349,0.4543 0.7412,0.9149 1.1621,1.3691 0.4209,0.4542 0.8715,0.9021 1.334,1.3281 0.4625,0.4261 0.9384,0.8312 1.4121,1.2012 0.4738,0.37 0.9457,0.7042 1.4004,0.9902 0.4074,0.2563 0.9732,0.5645 1.5664,0.8594 0.5932,0.2949 1.2123,0.5765 1.7285,0.7793 0.7145,0.2808 1.4247,0.5302 2.1446,0.75 0.7198,0.2198 1.4491,0.4106 2.205,0.5762 0.756,0.1656 1.5384,0.3057 2.3614,0.4238 0.823,0.1181 1.6884,0.2136 2.6093,0.291 1.8924,0.159 7.4402,0.3856 10.6172,0.4336 3.1785,0.048 30.6166,0.032 32.9649,-0.02 2.2755,-0.05 4.4016,-0.1206 6.2109,-0.2031 1.8093,-0.083 3.3018,-0.1772 4.3125,-0.2774 1.4759,-0.1463 2.8746,-0.3629 4.1934,-0.6484 1.3188,-0.2856 2.5579,-0.6407 3.7168,-1.0645 0.5794,-0.2119 1.1388,-0.4412 1.6777,-0.6875 0.5389,-0.2462 1.0567,-0.5085 1.5547,-0.789 0.498,-0.2805 0.9749,-0.58 1.4316,-0.8946 0.4568,-0.3146 0.8935,-0.6456 1.3086,-0.9941 0.4493,-0.3773 0.9994,-0.895 1.5274,-1.4277 0.528,-0.5328 1.0339,-1.0797 1.3925,-1.5176 0.3427,-0.4185 0.6681,-0.8561 0.9766,-1.3125 0.3085,-0.4565 0.6005,-0.9331 0.875,-1.4278 0.549,-0.9893 1.03,-2.0552 1.4434,-3.1992 0.4133,-1.144 0.7584,-2.365 1.0371,-3.666 0.2786,-1.301 0.49,-2.6822 0.6347,-4.1426 0.1008,-1.0166 0.1967,-2.5164 0.2793,-4.332 0.083,-1.8156 0.1522,-3.9467 0.2012,-6.2227 0.08,-3.7128 0.08,-30.0992 0,-33.7558 -0.07,-3.175 -0.1569,-5.6669 -0.2754,-7.6914 -0.1185,-2.0245 -0.268,-3.5822 -0.4609,-4.8926 -0.1658,-1.1259 -0.3845,-2.215 -0.6524,-3.2578 -0.2678,-1.0428 -0.5852,-2.0401 -0.9492,-2.9844 -0.364,-0.9443 -0.7743,-1.8356 -1.2285,-2.666 -0.4542,-0.8304 -0.9518,-1.5997 -1.4902,-2.3008 -0.5234,-0.6815 -1.1907,-1.4233 -1.8985,-2.125 -0.7077,-0.7017 -1.4557,-1.3625 -2.1406,-1.8789 -0.6153,-0.4639 -1.2765,-0.8963 -1.9805,-1.2949 -0.7039,-0.3986 -1.4505,-0.7626 -2.2382,-1.0938 -0.7878,-0.3311 -1.6178,-0.629 -2.4844,-0.8906 -0.8666,-0.2616 -1.7704,-0.4877 -2.711,-0.6777 -0.729,-0.1473 -1.4925,-0.2734 -2.3437,-0.3828 -0.8513,-0.1095 -1.7915,-0.2017 -2.875,-0.2813 -2.1671,-0.1593 -4.9074,-0.2668 -8.6641,-0.3555 -3.4195,-0.081 -31.1313,-0.081 -34.5507,0 z m 50.2089,10.0079 c 0.3962,0.028 0.7867,0.087 1.1661,0.1777 0.3793,0.09 0.749,0.2108 1.1054,0.3594 0.3565,0.1485 0.6998,0.3261 1.0274,0.5293 0.3275,0.2031 0.639,0.4316 0.9316,0.6855 0.2926,0.254 0.5648,0.533 0.8164,0.834 0.2516,0.301 0.4829,0.6244 0.6875,0.9687 0.2046,0.3444 0.3837,0.7099 0.5352,1.0938 0.1413,0.3582 0.2486,0.7525 0.3242,1.166 0.076,0.4135 0.1198,0.8454 0.1289,1.2793 0.01,0.4339 -0.016,0.8698 -0.074,1.2891 -0.058,0.4193 -0.1493,0.8216 -0.2754,1.1914 -0.1603,0.47 -0.3637,0.9165 -0.6055,1.334 -0.2418,0.4174 -0.523,0.8064 -0.8398,1.164 -0.3168,0.3576 -0.6695,0.6843 -1.0547,0.9746 -0.3853,0.2904 -0.8028,0.5441 -1.25,0.7598 -0.5231,0.2523 -0.9556,0.4173 -1.4121,0.5234 -0.4565,0.1061 -0.9374,0.154 -1.5606,0.168 -0.7158,0.016 -1.1608,-0.01 -1.5117,-0.07 v 0 c -0.5635,-0.1062 -1.106,-0.2758 -1.6191,-0.5039 -0.5131,-0.2281 -0.9967,-0.5132 -1.4414,-0.8496 -0.4448,-0.3364 -0.8505,-0.7232 -1.209,-1.1543 -0.3585,-0.4311 -0.6696,-0.9076 -0.9239,-1.4199 -0.2898,-0.584 -0.4672,-1.0318 -0.5722,-1.5215 -0.105,-0.4897 -0.1379,-1.0218 -0.1348,-1.7754 0,-1.0266 0.026,-1.2772 0.1426,-1.7011 0.1059,-0.3857 0.2359,-0.7557 0.3906,-1.1094 0.1548,-0.3537 0.3335,-0.6914 0.5332,-1.0098 0.1997,-0.3184 0.4214,-0.6168 0.6621,-0.8965 0.2407,-0.2797 0.5016,-0.5397 0.7793,-0.7773 0.2778,-0.2376 0.5719,-0.4543 0.8828,-0.6465 0.3109,-0.1922 0.6385,-0.3605 0.9786,-0.5039 0.3401,-0.1434 0.6932,-0.2622 1.0586,-0.3535 0.3653,-0.091 0.7422,-0.1557 1.1289,-0.1914 0.4069,-0.038 0.8089,-0.04 1.205,-0.012 z m -32.8691,8.5351 c 1.2125,0 2.0192,0.017 2.7793,0.076 0.7601,0.059 1.4725,0.1631 2.498,0.3359 1.1012,0.1856 2.187,0.4321 3.2539,0.7363 1.067,0.3043 2.1146,0.6651 3.1387,1.0821 1.0241,0.417 2.0254,0.8901 2.9981,1.414 0.9727,0.5239 1.9173,1.0998 2.83,1.7247 0.9127,0.6248 1.7927,1.2975 2.6368,2.0175 0.8441,0.72 1.653,1.4877 2.4199,2.2969 0.7669,0.8092 1.4927,1.6602 2.1738,2.5527 0.6811,0.8926 1.3157,1.825 1.9024,2.795 0.6424,1.0621 1.2173,2.1543 1.7226,3.2734 0.5054,1.1191 0.9411,2.2658 1.3086,3.4395 0.3675,1.1736 0.6677,2.3739 0.8965,3.5996 0.2288,1.2256 0.3872,2.4767 0.4766,3.7519 0.041,0.5895 0.052,1.5725 0.039,2.543 -0.013,0.9705 -0.05,1.9284 -0.1074,2.4648 -0.103,0.976 -0.2373,1.9151 -0.4082,2.8282 -0.1709,0.913 -0.3788,1.8004 -0.6231,2.6699 -0.2442,0.8695 -0.5265,1.7211 -0.8496,2.5664 -0.323,0.8452 -0.6865,1.683 -1.0937,2.5234 -0.3899,0.8046 -0.8029,1.5768 -1.2422,2.3223 -0.4394,0.7455 -0.9035,1.4644 -1.4004,2.1621 -0.4968,0.6977 -1.0255,1.3759 -1.5879,2.0371 -0.5624,0.6612 -1.1589,1.3055 -1.7949,1.9414 -0.636,0.636 -1.2822,1.2345 -1.9434,1.7969 -0.6611,0.5624 -1.3374,1.0891 -2.0351,1.5859 -0.6977,0.4969 -1.4166,0.963 -2.1621,1.4024 -0.7455,0.4393 -1.5177,0.8523 -2.3223,1.2422 -0.8222,0.3984 -1.6439,0.7542 -2.4707,1.0722 -0.8268,0.3181 -1.6581,0.5976 -2.5059,0.8399 -0.8477,0.2422 -1.7107,0.448 -2.5957,0.6191 -0.8849,0.1711 -1.792,0.3074 -2.7304,0.4121 -0.5455,0.061 -1.6687,0.1053 -2.791,0.1231 -1.1223,0.018 -2.2451,0.01 -2.7891,-0.035 v 0 c -0.8729,-0.07 -1.7357,-0.1738 -2.5879,-0.3106 -0.8522,-0.1368 -1.694,-0.3071 -2.5234,-0.5098 -0.8295,-0.2026 -1.6466,-0.4373 -2.4512,-0.705 -0.8046,-0.2677 -1.5953,-0.5686 -2.3731,-0.9004 -0.7777,-0.3319 -1.5422,-0.6967 -2.291,-1.0918 -0.7487,-0.3952 -1.4814,-0.8198 -2.1992,-1.2774 -0.7177,-0.4575 -1.4208,-0.9477 -2.1055,-1.4668 -0.6846,-0.519 -1.3524,-1.0668 -2.0019,-1.6464 -0.6423,-0.5733 -1.2595,-1.1773 -1.8516,-1.8067 -0.592,-0.6294 -1.1589,-1.2855 -1.6972,-1.9648 -0.5384,-0.6793 -1.0482,-1.3807 -1.5293,-2.1035 -0.4811,-0.7229 -0.9332,-1.4665 -1.3536,-2.2266 -0.4203,-0.7602 -0.8098,-1.537 -1.166,-2.3281 -0.3561,-0.7911 -0.6783,-1.5964 -0.9668,-2.4121 -0.2884,-0.8158 -0.5424,-1.6425 -0.7597,-2.4766 -0.2173,-0.8341 -0.3984,-1.6754 -0.541,-2.5215 -0.1729,-1.0256 -0.2749,-1.7399 -0.334,-2.5 -0.059,-0.7601 -0.075,-1.5668 -0.076,-2.7793 0,-1.13 0.01,-1.8666 0.051,-2.5351 0.041,-0.6685 0.1122,-1.2697 0.2363,-2.125 0.1812,-1.2492 0.4455,-2.4911 0.7852,-3.7168 0.3396,-1.2258 0.7553,-2.4354 1.2441,-3.6153 0.4888,-1.1798 1.051,-2.33 1.6797,-3.4414 0.6286,-1.1114 1.3249,-2.1827 2.084,-3.2031 0.4438,-0.5966 0.9205,-1.1898 1.4238,-1.7695 0.5033,-0.5797 1.0334,-1.1467 1.582,-1.6953 0.5486,-0.5487 1.1156,-1.0788 1.6953,-1.5821 0.5797,-0.5033 1.171,-0.98 1.7676,-1.4238 1.0205,-0.7592 2.0917,-1.4553 3.2031,-2.084 1.1115,-0.6287 2.2635,-1.1889 3.4434,-1.6777 1.1799,-0.4889 2.3875,-0.9065 3.6133,-1.2461 1.2258,-0.3397 2.4696,-0.6021 3.7187,-0.7832 0.8554,-0.1241 1.4546,-0.197 2.1231,-0.2383 0.6685,-0.041 1.407,-0.052 2.5371,-0.051 z m -0.4277,10.9004 c -0.5742,0.011 -1.1475,0.046 -1.7188,0.1055 -0.5713,0.059 -1.1401,0.144 -1.7051,0.2519 -0.5649,0.1079 -1.1266,0.2406 -1.6816,0.3965 -0.555,0.1559 -1.1031,0.3355 -1.6445,0.5391 -0.5415,0.2036 -1.0752,0.4307 -1.5996,0.6816 -0.515,0.2464 -1.018,0.5116 -1.5059,0.7969 -0.4879,0.2853 -0.9607,0.5914 -1.4199,0.9141 -0.9184,0.6452 -1.7787,1.3618 -2.5723,2.1464 -0.7936,0.7847 -1.5203,1.636 -2.1758,2.5469 -0.3277,0.4555 -0.6389,0.9256 -0.9297,1.4102 -0.2907,0.4846 -0.5623,0.984 -0.8144,1.4961 -0.3078,0.6251 -0.5779,1.2458 -0.8145,1.8711 -0.2365,0.6252 -0.4379,1.2552 -0.6074,1.8964 -0.1695,0.6413 -0.3074,1.2937 -0.4141,1.9668 -0.1066,0.6732 -0.1824,1.367 -0.2304,2.0879 -0.055,0.8281 -0.049,1.6824 0.016,2.5469 0.065,0.8645 0.1894,1.7399 0.3672,2.6055 0.1778,0.8655 0.41,1.7215 0.6933,2.5527 0.2834,0.8312 0.6184,1.637 1,2.3984 0.3605,0.7192 0.7589,1.4098 1.1934,2.0723 0.4345,0.6626 0.9036,1.2969 1.4063,1.8984 0.5026,0.6016 1.0385,1.1709 1.6035,1.7071 0.5649,0.5361 1.1598,1.0395 1.7812,1.5058 0.6214,0.4664 1.2694,0.8969 1.9414,1.2891 0.6721,0.3922 1.3672,0.745 2.084,1.0586 0.7169,0.3136 1.4552,0.5876 2.211,0.8184 0.7557,0.2307 1.5294,0.4191 2.3183,0.5624 0.9666,0.1757 1.9334,0.2786 2.9082,0.3106 0.9748,0.032 1.9573,-0.01 2.9531,-0.1191 0.9674,-0.1082 1.9313,-0.2908 2.8789,-0.543 0.9477,-0.2522 1.8795,-0.5731 2.7833,-0.959 0.9037,-0.3859 1.7794,-0.8364 2.6152,-1.3457 0.8358,-0.5093 1.6314,-1.0788 2.375,-1.7012 0.5844,-0.4892 1.9561,-1.8502 2.4687,-2.4511 0.6509,-0.7631 1.2392,-1.5677 1.7637,-2.4082 0.5245,-0.8406 0.9846,-1.7176 1.3789,-2.627 0.3944,-0.9094 0.722,-1.8509 0.9824,-2.8203 0.2604,-0.9694 0.4536,-1.9656 0.5762,-2.9863 0.062,-0.52 0.098,-1.3258 0.1035,-2.1289 0.01,-0.8032 -0.019,-1.6045 -0.074,-2.1172 -0.074,-0.6915 -0.1798,-1.3714 -0.3184,-2.041 -0.1385,-0.6697 -0.3086,-1.3278 -0.5097,-1.9727 -0.2012,-0.6449 -0.4332,-1.2774 -0.6953,-1.8945 -0.2622,-0.6172 -0.5555,-1.2202 -0.877,-1.8067 -0.3215,-0.5864 -0.6715,-1.1562 -1.0508,-1.709 -0.3792,-0.5527 -0.7873,-1.0873 -1.2226,-1.6035 -0.4354,-0.5161 -0.8989,-1.0137 -1.3887,-1.4902 -0.4898,-0.4766 -1.0062,-0.9332 -1.5488,-1.3672 -0.55,-0.4398 -1.1298,-0.8511 -1.7364,-1.2324 -0.6065,-0.3813 -1.2399,-0.7312 -1.8925,-1.0488 -0.6526,-0.3177 -1.3254,-0.6026 -2.0137,-0.8516 -0.6883,-0.249 -1.392,-0.4635 -2.1055,-0.6387 -0.5616,-0.1379 -1.1279,-0.2499 -1.6972,-0.3379 -0.5694,-0.088 -1.1413,-0.1509 -1.7149,-0.1894 -0.5735,-0.038 -1.1484,-0.054 -1.7226,-0.043 z"
       inkscape:export-filename="..\szkoła strona new\instaramIcon.svg"
       inkscape:export-xdpi="96"
       inkscape:export-ydpi="96" /></g></svg>
